<?xml version="1.0" standalone="no"?>
<!DOCTYPE svg PUBLIC "-//W3C//DTD SVG 20010904//EN"
 "http://www.w3.org/TR/2001/REC-SVG-20010904/DTD/svg10.dtd">
<svg version="1.0" xmlns="http://www.w3.org/2000/svg"
 width="2339.000000pt" height="1654.000000pt" viewBox="0 0 2339.000000 1654.000000"
 preserveAspectRatio="xMidYMid meet">

<g transform="translate(0.000000,1654.000000) scale(0.100000,-0.100000)"
fill="#000000" stroke="none">
<path d="M9414 14381 c-93 -32 -127 -53 -202 -125 -193 -185 -247 -539 -126
-815 14 -30 22 -56 20 -59 -3 -2 -40 9 -83 26 -268 106 -491 103 -718 -11
-354 -176 -548 -556 -465 -913 29 -125 88 -241 190 -373 48 -60 75 -103 67
-105 -6 -2 -47 -16 -90 -31 -44 -14 -80 -25 -82 -23 -2 2 -15 52 -29 112 -126
522 -506 866 -961 869 -121 1 -212 -18 -344 -72 -223 -91 -350 -235 -351 -399
0 -22 -18 -62 -54 -122 l-53 -89 -46 232 c-25 128 -56 291 -67 362 -42 254
-90 392 -169 493 -77 97 -202 152 -352 155 -75 1 -92 -2 -142 -26 -140 -69
-215 -240 -236 -538 -10 -128 -2 -372 15 -546 l7 -64 -65 49 c-129 97 -240
146 -401 177 -123 23 -215 19 -347 -15 -297 -78 -472 -231 -488 -426 -2 -35
-7 -64 -11 -64 -3 0 -22 17 -42 38 -19 21 -53 46 -74 56 -40 19 -41 19 -205
-7 -47 -8 -87 -12 -90 -10 -2 2 1 12 8 21 29 39 61 121 72 180 39 222 -138
575 -389 774 -143 114 -263 158 -452 165 -205 9 -373 -38 -542 -150 -272 -181
-463 -549 -534 -1024 -26 -178 -24 -542 5 -728 88 -568 344 -1039 689 -1268
233 -155 535 -196 807 -110 319 101 544 325 676 675 18 48 37 85 42 82 4 -3
18 -24 29 -47 12 -23 42 -71 67 -107 205 -290 508 -433 808 -379 128 22 284
88 389 163 67 48 186 167 227 227 18 27 35 49 38 49 3 0 22 -34 43 -75 47 -91
122 -169 205 -213 126 -67 243 -85 497 -77 216 7 303 19 372 52 84 39 144 124
174 248 7 28 13 51 14 53 1 1 38 -9 81 -24 112 -39 294 -45 411 -16 239 61
456 212 582 405 l43 67 68 -64 c212 -200 458 -286 732 -257 190 21 365 79 515
171 88 54 213 166 257 229 l29 41 44 -41 c24 -22 74 -55 111 -72 65 -31 71
-32 202 -31 123 0 141 3 205 27 90 36 148 70 202 120 l44 40 57 -27 c153 -73
292 -73 448 -2 147 68 225 166 258 327 6 26 7 26 69 -35 177 -174 495 -228
707 -121 48 24 123 98 142 140 6 14 14 25 17 25 4 0 38 -13 76 -29 141 -59
289 -65 461 -16 118 33 329 139 435 219 l86 65 69 -11 c93 -14 203 -5 259 22
l44 21 63 -44 c75 -54 179 -107 268 -138 82 -28 318 -38 438 -19 247 39 517
181 656 345 76 89 120 167 158 276 31 90 32 100 33 249 0 144 -2 161 -29 243
-35 107 -69 155 -249 348 -73 77 -158 169 -189 204 l-58 63 71 16 c92 21 169
65 245 140 199 199 169 474 -72 662 -164 127 -469 214 -656 186 -461 -69 -807
-495 -748 -922 24 -178 93 -314 260 -512 23 -27 28 -39 18 -42 -7 -2 -49 -16
-93 -31 -44 -14 -88 -29 -97 -32 -14 -4 -22 12 -46 89 -128 409 -342 703 -609
837 -142 71 -391 112 -489 81 -114 -36 -288 -187 -386 -335 -51 -78 -116 -204
-143 -280 -10 -27 -21 -54 -25 -58 -4 -4 -29 23 -57 60 -127 174 -259 276
-430 333 -116 38 -282 52 -374 30 -121 -29 -280 -133 -363 -239 l-40 -50 -80
6 c-125 9 -240 -26 -341 -104 l-47 -36 -32 32 c-30 31 -30 32 -11 43 11 6 52
43 91 82 78 78 128 168 160 286 27 99 25 291 -4 393 -52 184 -158 324 -296
394 -122 62 -268 71 -402 24z m261 -161 c93 -40 182 -153 216 -275 23 -81 18
-227 -10 -311 -53 -158 -156 -239 -322 -251 -124 -10 -225 48 -286 164 -85
161 -84 312 4 491 87 176 245 249 398 182z m4636 -78 c86 -30 111 -46 168
-105 68 -70 107 -129 128 -194 13 -43 14 -56 3 -82 -24 -60 -148 -153 -220
-166 -50 -9 -82 19 -126 113 -20 42 -46 88 -58 100 -47 52 -106 65 -172 37
-67 -28 -101 -163 -70 -282 41 -164 128 -275 360 -462 280 -226 358 -330 374
-501 11 -105 1 -207 -28 -282 -101 -270 -436 -463 -800 -461 -172 1 -283 41
-413 148 -99 82 -170 204 -208 358 -16 66 -8 161 17 188 75 83 402 162 502
120 17 -7 32 -16 33 -20 1 -3 2 -53 3 -111 1 -93 5 -112 29 -161 40 -82 90
-114 176 -114 151 0 246 121 197 248 -9 24 -28 59 -42 78 -33 46 -143 157
-229 233 -213 188 -269 244 -347 346 -111 146 -161 307 -140 450 39 267 257
492 525 540 85 15 273 5 338 -18z m-1819 -523 c71 -24 159 -75 221 -129 168
-148 343 -514 416 -870 50 -243 77 -553 51 -585 -17 -20 -105 -20 -227 1 l-94
16 -68 -67 c-124 -123 -297 -223 -445 -260 -84 -20 -207 -21 -262 -1 -97 34
-207 137 -258 241 -53 108 -59 262 -17 397 62 195 294 410 574 531 39 17 73
32 75 33 7 4 -29 138 -49 183 -29 68 -80 115 -124 115 -41 0 -66 -21 -110 -89
-35 -54 -123 -265 -150 -356 -18 -64 -26 -69 -111 -69 -36 0 -59 6 -75 19 -23
19 -24 23 -24 183 0 174 14 252 69 388 52 126 165 264 251 305 101 47 239 53
357 14z m-1432 -246 c111 -30 227 -111 303 -213 119 -158 240 -493 281 -780
25 -172 40 -509 28 -629 -15 -146 -16 -146 -180 -145 -88 0 -147 5 -192 17
-80 22 -171 56 -187 71 -10 9 -14 114 -16 436 -3 340 -7 446 -21 530 -41 253
-110 380 -207 380 -104 0 -218 -118 -328 -338 l-42 -83 30 -122 c40 -163 82
-377 136 -691 41 -237 43 -262 30 -283 -35 -53 -167 -93 -308 -93 -95 0 -152
16 -160 47 -18 61 -140 799 -166 1003 -24 181 -41 371 -41 454 0 52 3 61 33
91 38 38 143 75 212 75 50 0 64 -13 100 -95 l27 -59 41 79 c119 227 249 345
401 364 74 10 152 4 226 -16z m-2227 -68 c140 -29 263 -127 327 -261 33 -69
37 -111 15 -154 -18 -36 -104 -106 -160 -131 -86 -40 -124 -18 -180 104 -42
93 -88 138 -147 144 -55 5 -105 -20 -133 -67 -30 -52 -28 -223 3 -298 55 -133
144 -235 352 -402 292 -235 357 -330 367 -535 8 -162 -31 -285 -131 -407 -175
-215 -578 -344 -866 -276 -129 30 -291 147 -366 263 -38 60 -90 204 -100 272
-7 60 8 122 38 150 91 85 409 155 498 110 24 -12 25 -17 30 -127 6 -133 29
-193 92 -243 72 -57 187 -46 264 25 122 113 63 247 -218 495 -323 283 -438
427 -483 600 -85 325 167 683 523 743 77 13 202 11 275 -5z m-3185 -19 c34
-30 103 -276 167 -591 58 -290 194 -1129 250 -1539 14 -104 27 -191 29 -194 3
-2 46 3 97 12 131 23 153 21 178 -10 67 -85 67 -368 1 -404 -18 -10 -97 -14
-452 -25 -170 -5 -178 -5 -198 15 -11 11 -35 23 -53 26 -52 9 -86 25 -92 43
-6 20 -70 547 -130 1076 -79 702 -122 1257 -113 1463 4 104 14 120 88 141 57
16 206 8 228 -13z m-2900 -211 c34 -8 89 -28 122 -45 73 -37 193 -148 248
-230 75 -112 142 -308 142 -416 0 -48 -3 -55 -33 -78 -43 -33 -99 -56 -136
-56 -26 0 -37 11 -93 91 -157 227 -252 309 -356 309 -93 0 -171 -114 -224
-328 -32 -126 -32 -380 0 -582 55 -349 99 -525 173 -689 56 -124 122 -179 203
-168 97 13 143 151 160 478 l7 116 -112 6 c-145 8 -144 7 -144 140 l0 102 130
43 c276 91 628 186 732 197 57 7 63 6 87 -18 33 -33 55 -110 61 -221 8 -114
-1 -147 -43 -165 l-32 -15 0 -131 c0 -369 -100 -730 -255 -918 -160 -193 -374
-297 -615 -299 -265 -1 -468 123 -659 402 -143 208 -259 516 -302 795 -24 154
-29 505 -10 675 34 302 144 622 264 768 97 118 237 207 368 236 85 19 239 19
317 1z m6954 -11 c21 -6 87 -172 122 -306 65 -251 116 -527 191 -1038 19 -129
37 -245 40 -257 9 -37 -40 -80 -121 -108 -131 -45 -342 -52 -382 -12 -17 18
-54 164 -92 367 -65 351 -84 567 -84 960 -1 343 0 347 56 376 52 27 202 37
270 18z m-2630 -305 c72 -15 201 -78 271 -134 96 -76 228 -270 290 -426 47
-117 58 -184 64 -364 4 -154 3 -181 -20 -290 -59 -286 -231 -542 -431 -640
-319 -157 -741 42 -925 437 -46 98 -65 168 -82 301 -15 122 -7 339 16 427 25
98 89 220 150 288 l55 60 -15 36 c-34 81 -13 129 87 194 153 100 374 145 540
111z m-2336 -398 c99 -33 205 -102 273 -177 95 -103 194 -272 241 -410 69
-198 66 -518 -5 -731 -80 -238 -229 -430 -402 -515 -85 -42 -89 -43 -203 -47
-131 -3 -203 10 -307 58 -92 44 -171 101 -243 177 -195 207 -270 434 -257 777
8 235 53 352 200 521 19 22 23 34 17 47 -5 9 -13 35 -18 57 -8 33 -6 46 8 69
52 86 248 180 421 202 92 12 182 3 275 -28z m-1922 -145 c20 -8 60 -46 100
-94 36 -43 76 -86 88 -95 27 -18 47 -9 -186 -87 -137 -46 -182 -57 -189 -47
-11 15 -2 158 14 221 13 51 55 102 92 109 40 8 47 7 81 -7z"/>
<path d="M9600 14152 c0 -4 16 -18 36 -31 54 -37 150 -147 179 -204 30 -61 33
-40 5 35 -24 64 -66 118 -125 158 -47 33 -95 54 -95 42z"/>
<path d="M14504 13910 c25 -30 27 -40 24 -97 l-3 -64 23 26 c42 49 24 118 -41
151 l-31 17 28 -33z"/>
<path d="M14575 12755 c39 -107 45 -143 46 -253 0 -117 0 -117 16 -77 20 50
22 176 5 235 -7 25 -27 61 -44 80 -18 22 -27 27 -23 15z"/>
<path d="M12516 13522 c63 -41 181 -152 248 -232 l37 -45 -36 70 c-57 113
-184 224 -275 241 -33 6 -31 4 26 -34z"/>
<path d="M12475 12612 c-65 -40 -166 -176 -196 -263 -20 -60 -13 -103 17 -107
29 -4 130 66 203 143 l63 66 -7 66 c-12 115 -24 129 -80 95z"/>
<path d="M11060 13296 c0 -2 28 -22 63 -44 68 -45 114 -89 172 -167 26 -34 35
-42 30 -25 -27 88 -95 168 -177 209 -55 28 -88 38 -88 27z"/>
<path d="M11626 11773 c-9 -29 -67 -78 -110 -94 -53 -19 -44 -33 15 -26 62 8
85 27 100 79 11 42 7 78 -5 41z"/>
<path d="M9081 13062 c20 -28 24 -45 23 -100 -1 -65 -1 -65 18 -42 43 53 33
100 -31 149 l-35 26 25 -33z"/>
<path d="M9150 11908 c0 -3 10 -31 21 -64 18 -47 22 -83 23 -181 1 -114 2
-120 16 -95 11 19 15 57 15 132 0 89 -3 111 -22 146 -19 35 -53 75 -53 62z"/>
<path d="M5586 13238 c27 -31 44 -73 44 -109 0 -40 17 -28 26 17 8 43 -7 74
-46 97 -39 23 -47 21 -24 -5z"/>
<path d="M6295 10904 c18 -27 25 -50 25 -86 0 -57 14 -56 31 2 10 33 9 43 -5
64 -9 14 -30 32 -46 41 l-30 15 25 -36z"/>
<path d="M2827 12942 c39 -21 97 -74 141 -127 37 -45 42 -34 10 22 -42 74
-107 124 -160 123 -21 -1 -20 -3 9 -18z"/>
<path d="M3536 11880 c25 -13 51 -37 70 -67 25 -41 29 -44 32 -24 5 31 -16 78
-42 96 -11 8 -39 15 -61 15 l-40 0 41 -20z"/>
<path d="M9644 12965 c15 -16 37 -46 47 -69 l19 -41 0 46 c0 52 -17 73 -65 84
l-30 7 29 -27z"/>
<path d="M7150 12606 c0 -2 20 -16 45 -31 67 -38 173 -142 206 -200 35 -61 38
-45 5 29 -33 74 -96 139 -169 176 -54 27 -87 37 -87 26z"/>
<path d="M6800 12223 c-41 -14 -90 -26 -109 -27 -33 -1 -35 -3 -54 -66 -28
-90 -30 -335 -4 -430 22 -85 96 -234 141 -287 73 -84 200 -118 274 -73 41 25
85 94 111 174 87 262 0 642 -163 720 -48 23 -110 19 -196 -11z"/>
<path d="M4800 12194 c75 -49 166 -139 201 -199 37 -65 38 -38 0 40 -34 70
-108 146 -171 174 -74 34 -91 25 -30 -15z"/>
<path d="M4400 11848 c-30 -12 -74 -22 -98 -22 -38 -1 -43 -4 -52 -31 -64
-199 -51 -425 35 -611 68 -149 152 -229 252 -241 104 -12 173 49 224 197 31
91 38 284 14 401 -31 155 -87 262 -160 305 -54 31 -137 32 -215 2z"/>
<path d="M16443 11930 c-141 -14 -295 -57 -471 -134 -498 -215 -884 -655
-1032 -1176 -12 -41 -24 -81 -26 -89 -3 -9 -17 3 -38 35 -109 161 -339 299
-556 334 -108 17 -290 12 -398 -10 -98 -20 -244 -71 -307 -109 l-34 -20 -57
81 c-152 217 -369 387 -594 466 -162 56 -228 67 -425 67 -197 0 -249 -10 -425
-84 -462 -192 -786 -673 -861 -1274 -18 -146 -7 -453 21 -591 92 -463 336
-819 675 -988 39 -19 93 -43 120 -53 28 -10 54 -22 59 -26 5 -4 -23 -23 -61
-43 -135 -67 -261 -185 -339 -313 -63 -105 -65 -121 -70 -513 -3 -195 -7 -366
-10 -379 -4 -19 -19 -2 -94 110 -367 554 -823 902 -1345 1030 -204 50 -313 61
-538 57 l-202 -4 -120 -41 c-441 -149 -774 -457 -1012 -938 -28 -55 -58 -122
-68 -148 -10 -26 -21 -44 -25 -40 -4 4 -26 107 -49 228 -105 549 -189 818
-372 1190 -255 521 -619 973 -994 1236 -660 463 -1367 399 -1968 -180 -108
-104 -270 -347 -387 -581 -29 -58 -54 -107 -56 -109 -3 -3 -62 52 -132 120
-150 148 -210 199 -346 296 -240 171 -496 288 -761 345 -135 30 -444 32 -578
5 -188 -38 -392 -122 -557 -228 -623 -403 -973 -1096 -1067 -2113 -22 -247
-22 -783 1 -1076 35 -441 99 -872 226 -1515 38 -192 81 -411 95 -485 159 -819
348 -1356 598 -1693 215 -290 405 -392 752 -404 528 -18 947 199 1066 550 18
53 20 78 16 177 -5 117 -38 315 -83 495 -28 114 -32 128 -148 480 -157 481
-186 600 -250 1035 -44 295 -58 405 -96 760 -16 157 -48 416 -69 575 -34 247
-52 416 -64 597 -1 21 0 34 4 30 13 -15 100 -312 123 -422 27 -125 60 -316
101 -590 58 -391 113 -640 184 -837 70 -197 128 -290 251 -407 101 -95 231
-162 390 -202 90 -23 133 -27 300 -31 275 -7 524 27 750 104 217 73 337 154
463 313 l27 35 -5 -80 c-3 -44 -12 -183 -20 -310 -42 -627 -62 -846 -100
-1065 -52 -296 -43 -483 30 -635 150 -313 572 -511 1265 -597 134 -17 508 -17
625 0 273 38 481 123 617 250 134 125 243 351 297 616 11 54 22 100 24 102 2
2 30 -28 63 -67 196 -236 446 -385 751 -446 108 -21 409 -24 523 -4 220 38
482 119 712 222 208 92 358 175 763 421 131 79 172 88 455 98 283 11 406 28
511 74 l37 15 51 -59 c151 -174 397 -273 707 -287 165 -7 319 9 489 52 207 52
393 135 529 237 l69 52 20 -30 c37 -53 182 -189 239 -222 211 -125 453 -178
923 -203 481 -24 951 29 1231 141 268 106 404 264 479 555 10 39 19 71 21 73
1 2 33 -19 70 -47 294 -214 701 -180 991 83 103 93 212 291 237 429 4 21 10
37 14 35 4 -2 43 -22 87 -45 169 -86 313 -117 560 -117 240 -1 428 34 622 113
161 67 239 117 349 226 110 109 157 187 190 315 24 96 15 290 -24 495 -17 88
-52 277 -77 420 -96 544 -187 997 -280 1400 -56 240 -68 402 -41 518 32 136
127 305 235 418 l61 64 24 -27 c57 -64 139 -346 175 -605 29 -211 40 -368 52
-788 10 -349 6 -588 -18 -1156 -10 -229 54 -424 186 -562 165 -174 525 -322
907 -372 134 -17 418 -20 530 -4 102 14 233 52 321 94 230 108 352 269 415
550 29 129 36 465 14 710 -9 99 -23 279 -31 400 -65 962 -240 1688 -561 2335
-362 729 -840 1139 -1486 1276 -105 22 -157 27 -354 31 -263 6 -328 -2 -494
-64 -309 -114 -592 -344 -816 -663 -31 -44 -62 -80 -69 -80 -7 0 -41 13 -76
30 -76 35 -152 56 -242 65 -37 4 -67 11 -67 16 0 6 11 31 24 58 42 83 114 311
138 436 19 101 22 154 22 330 0 190 -3 227 -31 385 -66 371 -191 645 -406 890
-128 146 -281 261 -497 374 -216 112 -387 171 -615 210 -112 20 -360 28 -482
16z m667 -863 c79 -29 146 -100 155 -165 10 -73 -10 -126 -67 -183 -70 -68
-157 -102 -268 -103 -108 -1 -178 22 -237 77 -77 71 -92 145 -47 235 70 140
286 205 464 139z m-4475 -122 c98 -33 167 -74 268 -160 381 -325 498 -919 287
-1460 -104 -266 -314 -442 -617 -517 -116 -29 -316 -31 -413 -5 -172 47 -310
148 -417 304 -80 116 -116 191 -163 332 -51 153 -64 250 -57 420 6 150 21 229
68 371 142 426 388 682 710 739 95 17 244 7 334 -24z m4822 -406 c18 -6 44
-24 59 -42 52 -61 10 -153 -91 -203 -107 -52 -240 -32 -273 41 -32 70 4 137
99 187 72 37 125 42 206 17z m-3185 -78 c45 -15 74 -31 91 -51 67 -79 217
-587 346 -1170 200 -903 543 -2891 743 -4302 45 -321 54 -368 69 -368 9 0 138
20 286 45 299 49 315 49 378 -6 45 -40 88 -130 120 -248 88 -334 30 -751 -114
-825 -35 -18 -120 -23 -671 -36 -217 -5 -499 -17 -626 -26 -265 -20 -271 -19
-340 53 -39 39 -46 42 -124 53 -104 14 -178 42 -214 79 l-28 29 -143 1134
c-399 3154 -516 4365 -503 5233 3 205 6 245 21 272 34 63 148 120 298 148 107
21 323 13 411 -14z m-8244 -811 c427 -91 758 -335 1051 -775 153 -230 294
-536 375 -810 183 -623 322 -1498 366 -2305 39 -700 -20 -1971 -125 -2695 -31
-214 -45 -269 -80 -305 -117 -122 -573 -154 -1115 -79 -413 57 -707 168 -755
284 -11 24 -10 43 1 100 100 516 165 1431 194 2745 42 1889 -49 2788 -268
2634 -136 -95 -401 -819 -557 -1518 -48 -215 -115 -593 -117 -660 -1 -23 13
-111 30 -196 59 -290 108 -620 127 -850 6 -67 4 -80 -17 -120 -48 -88 -222
-171 -467 -222 -126 -25 -430 -36 -568 -18 -182 22 -312 82 -341 157 -6 15
-20 98 -32 183 -58 420 -205 1105 -331 1545 -130 453 -311 930 -424 1115 -166
274 -316 266 -398 -20 -115 -403 -106 -1197 29 -2390 105 -936 310 -1862 529
-2391 30 -73 55 -139 55 -146 0 -51 -165 -149 -359 -213 -188 -63 -416 -89
-494 -56 -103 42 -280 357 -431 763 -188 506 -360 1154 -460 1733 -94 544
-140 1088 -140 1660 1 814 80 1263 297 1696 187 373 442 615 762 722 209 69
495 87 705 43 499 -105 928 -489 1281 -1146 l53 -100 19 65 c46 162 123 396
169 510 159 394 388 735 606 900 115 87 280 157 427 180 87 13 295 3 403 -20z
m14247 -139 c401 -88 761 -372 997 -786 159 -280 331 -709 433 -1080 135 -493
194 -923 226 -1655 15 -341 -1 -736 -33 -840 -36 -117 -206 -164 -515 -141
-436 33 -956 204 -929 305 13 49 18 1261 7 1531 -18 448 -31 589 -87 940 -44
275 -75 378 -176 577 -100 198 -184 268 -323 268 -136 0 -252 -60 -392 -202
-159 -161 -286 -357 -449 -692 -73 -150 -81 -172 -73 -200 54 -181 175 -702
255 -1101 108 -533 276 -1487 276 -1557 -1 -73 -46 -125 -161 -182 -204 -103
-529 -161 -768 -138 -169 17 -256 55 -289 125 -8 18 -48 221 -89 452 -41 231
-95 533 -119 670 -228 1271 -325 2006 -329 2490 -2 237 -1 242 74 310 109 98
449 202 592 181 92 -14 128 -61 236 -305 l33 -75 71 145 c140 280 273 480 425
641 192 201 371 300 602 334 132 19 387 11 505 -15z m-3526 -823 c10 -24 39
-87 65 -141 25 -54 46 -104 46 -110 0 -7 6 -21 13 -32 12 -19 34 -75 87 -223
30 -83 24 -90 -101 -103 -108 -11 -213 -3 -230 17 -9 11 -10 57 -5 172 4 86 9
218 11 292 2 74 4 140 4 147 1 11 25 19 69 22 18 1 27 -8 41 -41z m-223 -582
c1 -117 -13 -109 187 -101 l173 7 16 -63 16 -64 1 68 1 67 38 0 c37 0 39 -2
49 -42 5 -24 27 -112 47 -196 37 -155 177 -836 221 -1082 70 -386 136 -782
261 -1560 145 -905 140 -869 125 -920 -17 -57 -70 -112 -143 -148 -77 -38
-134 -51 -215 -52 -136 0 -239 46 -273 123 -39 88 -222 1054 -309 1632 -104
691 -205 1636 -236 2210 -3 61 -8 125 -11 143 -4 29 -3 32 21 32 14 0 25 5 25
10 0 6 1 10 3 10 1 0 2 -33 3 -74z m-3756 -103 c25 -11 52 -29 61 -39 33 -39
168 -388 230 -593 38 -127 60 -212 163 -646 109 -457 197 -950 371 -2065 58
-371 108 -691 111 -711 12 -71 -47 -145 -167 -209 -81 -43 -278 -106 -411
-131 -140 -26 -432 -37 -534 -20 -81 14 -166 52 -187 84 -30 46 -143 507 -222
905 -106 539 -174 1075 -217 1722 -18 277 -18 1470 0 1523 20 57 60 97 126
128 115 54 272 79 486 75 121 -2 152 -6 190 -23z m-2845 -108 c285 -59 568
-218 800 -451 379 -378 788 -1244 964 -2040 106 -476 172 -977 175 -1314 1
-206 -5 -228 -67 -256 -83 -38 -309 -22 -636 42 l-124 25 -141 -139 c-161
-157 -219 -208 -365 -316 -264 -196 -577 -339 -891 -408 -87 -19 -134 -23
-275 -22 -156 0 -177 2 -258 27 -174 54 -287 125 -437 276 -273 276 -372 514
-373 896 0 332 96 623 292 886 196 263 427 475 696 641 219 134 481 271 649
338 l58 23 -6 41 c-10 64 -54 232 -83 315 -94 276 -252 424 -408 382 -75 -20
-174 -140 -275 -333 -92 -176 -300 -732 -331 -885 l-13 -62 -55 -7 c-31 -4
-117 -8 -191 -8 -117 0 -141 2 -182 21 -40 18 -48 27 -57 60 -39 157 -50 614
-17 807 58 354 169 671 306 881 255 389 478 553 811 594 104 14 339 6 434 -14z
m-4275 -1420 c-12 -397 -22 -656 -26 -652 -2 1 -11 61 -20 132 -23 171 -24
516 -2 630 17 85 48 199 53 193 2 -2 -1 -138 -5 -303z"/>
<path d="M12510 10732 c83 -57 192 -143 239 -186 131 -123 287 -336 336 -459
15 -37 29 -67 31 -67 6 0 -8 63 -33 145 -36 115 -114 262 -177 332 -84 93
-261 207 -366 237 -52 14 -54 14 -30 -2z"/>
<path d="M14151 10332 c85 -55 139 -165 148 -302 l6 -85 18 32 c9 18 24 62 33
99 14 62 14 71 -1 110 -27 72 -127 148 -223 170 -21 5 -17 -1 19 -24z"/>
<path d="M15981 4472 c24 -22 54 -59 66 -83 28 -57 47 -177 38 -246 -8 -66 4
-64 39 5 33 66 49 129 41 169 -11 60 -107 148 -199 183 -27 10 -25 7 15 -28z"/>
<path d="M6610 9043 c74 -82 187 -248 239 -352 43 -85 91 -219 127 -355 l25
-91 -5 135 c-5 154 -25 239 -83 353 -53 107 -103 175 -177 245 -65 60 -162
132 -179 132 -5 0 19 -30 53 -67z"/>
<path d="M3579 8713 c30 -26 60 -51 67 -56 30 -17 202 -228 266 -326 91 -138
124 -205 181 -371 12 -35 6 67 -9 138 -36 178 -116 325 -243 453 -94 94 -164
144 -256 184 l-60 26 54 -48z"/>
<path d="M7515 3085 c-23 -45 -104 -119 -159 -147 -23 -12 -66 -29 -96 -39
-53 -17 -54 -18 -20 -20 82 -5 165 3 197 18 44 21 79 73 93 140 16 73 10 93
-15 48z"/>
<path d="M20423 9241 c243 -149 360 -255 519 -466 25 -33 53 -75 62 -93 31
-61 28 -26 -5 55 -70 172 -190 332 -308 412 -104 71 -234 128 -331 146 -28 5
-16 -5 63 -54z"/>
<path d="M21810 5480 c0 -55 -79 -157 -163 -211 -33 -22 -98 -54 -145 -71 -71
-27 -81 -34 -61 -39 74 -21 231 5 286 47 51 39 86 121 91 216 3 43 2 78 -2 78
-3 0 -6 -9 -6 -20z"/>
<path d="M12595 7784 c78 -40 167 -166 182 -257 8 -51 23 -34 30 34 11 114
-37 193 -137 223 -29 9 -65 16 -79 16 l-26 0 30 -16z"/>
<path d="M10030 7678 c266 -165 508 -380 704 -625 54 -68 100 -123 102 -123
14 0 -85 196 -145 284 -131 197 -378 389 -593 460 -93 32 -114 33 -68 4z"/>
<path d="M10092 5329 c-162 -80 -415 -400 -519 -655 -44 -109 -55 -219 -26
-274 15 -30 23 -35 50 -34 39 2 126 50 248 136 108 75 341 303 380 371 27 47
28 52 22 145 -11 168 -52 342 -81 342 -7 0 -41 -14 -74 -31z"/>
</g>
</svg>
