<?xml version="1.0" encoding="UTF-8" standalone="no"?>
<svg
   xmlns:dc="http://purl.org/dc/elements/1.1/"
   xmlns:cc="http://creativecommons.org/ns#"
   xmlns:rdf="http://www.w3.org/1999/02/22-rdf-syntax-ns#"
   xmlns:svg="http://www.w3.org/2000/svg"
   xmlns="http://www.w3.org/2000/svg"
   viewBox="0 0 1122.5197 793.70081"
   height="793.70081"
   width="1122.5197"
   xml:space="preserve"
   id="svg2"
   version="1.1"><metadata
     id="metadata8"><rdf:RDF><cc:Work
         rdf:about=""><dc:format>image/svg+xml</dc:format><dc:type
           rdf:resource="http://purl.org/dc/dcmitype/StillImage" /></cc:Work></rdf:RDF></metadata><defs
     id="defs6"><clipPath
       id="clipPath18"
       clipPathUnits="userSpaceOnUse"><path
         style="clip-rule:evenodd"
         id="path16"
         d="M -0.015,-0.2021 H 841.8748 V 595.0735 H -0.015 Z" /></clipPath></defs><g
     transform="matrix(1.3333333,0,0,-1.3333333,0,793.7008)"
     id="g10"><g
       id="g12"><g
         clip-path="url(#clipPath18)"
         id="g14"><g
           id="g20"><path
             id="path22"
             style="fill:#f2f2f2;fill-opacity:1;fill-rule:nonzero;stroke:none"
             d="m 720.6667,204.0574 c -0.2784,-3.4697 -0.5961,-7.4744 -0.2744,-11.6212 -3.4282,19.9958 -6.5044,36.2891 -9.6831,51.2773 -0.6047,2.8267 -1.2317,5.4794 -1.8618,8.1541 -3.2137,13.521 -4.6761,19.6898 3.1725,30.7559 0.8943,1.2603 1.6637,2.2116 2.3009,2.9208 2.0917,-4.572 4.9456,-14.7549 5.9255,-29.0948 1.1197,-16.2739 1.0086,-32.8671 0.7546,-46.9454 -0.0391,-1.7328 -0.1803,-3.5251 -0.3342,-5.4467 z M 557.6131,299.304 c -0.798,4.2851 -1.5758,8.4104 -2.3545,12.4268 1.8556,-1.512 3.7905,-2.9208 5.8068,-4.2123 -1.6948,-2.2813 -2.9177,-5.1554 -3.4523,-8.2145 z m 20.8771,-26.5144 c 0.0689,-0.0281 0.1321,-0.0598 0.2019,-0.0916 1.8051,-22.7582 4.0739,-43.4239 6.9318,-63.1176 0.6582,-4.5533 1.1843,-9.9031 1.7413,-15.5583 0.3342,-3.3684 0.6846,-6.8184 1.0724,-10.2917 -2.5968,1.2067 -5.5106,1.7266 -8.5612,1.5284 -0.6047,-0.0414 -1.2098,-0.1097 -1.8216,-0.2021 l -1.5468,-0.2579 c -4.8898,33.8587 -10.4582,68.0649 -16.5731,101.8513 0.334,-0.5198 0.7025,-1.0304 1.1087,-1.5222 5.0575,-6.1375 11.6555,-9.6817 17.4466,-12.3383 z m 232.4696,-56.4506 -2.6371,-0.2395 v 0 l 2.6022,0.6046 c -0.227,2.5144 -0.4436,4.8875 -0.5609,7.0203 -1.5463,27.4623 -5.6676,49.7489 -12.9773,70.132 -17.0283,47.493 -45.9593,69.6336 -86.1764,66.3982 -1.1026,-0.1044 -2.2022,-0.3002 -3.2519,-0.5797 l -0.6106,-0.161 c -14.4473,-3.8384 -26.4648,-12.9249 -36.6763,-27.7498 -2.9971,1.415 -6.1285,2.3598 -9.2605,2.8137 5.8198,13.1332 7.2916,28.6316 4.0561,42.8201 -0.0352,0.5516 -0.0763,1.1033 -0.1525,1.6954 -0.1094,0.7841 -0.2642,1.516 -0.4125,2.0444 l -0.2293,1.2075 c -5.997,24.2609 -21.3253,36.0865 -32.9714,41.6447 -12.9592,7.3318 -28.1679,10.1401 -43.9322,8.0847 -0.7713,-0.0908 -1.4769,-0.2393 -1.9284,-0.3745 -0.4632,-0.0661 -0.955,-0.1545 -1.5503,-0.3022 -24.2144,-6.3119 -42.4074,-23.4776 -49.6168,-46.4505 -6.5316,7.2854 -16.6011,11.2451 -27.7622,10.8961 -6.2598,-0.2143 -12.591,-1.7994 -18.0851,-4.6068 -10.1279,15.2311 -26.3574,22.7899 -44.5065,21.2811 -1.1809,-0.1072 -2.3278,-0.3187 -3.613,-0.6713 -32.6118,-7.7921 -45.8677,-44.6757 -39.4464,-74.3822 3.8129,-17.6329 13.5613,-30.7398 27.1508,-36.8425 -4.8673,-3.1042 -8.7431,-7.1594 -11.3618,-11.9429 -1.8966,-3.4716 -2.6433,-7.272 -2.171,-10.5511 -0.1732,-4.7367 -0.2991,-9.4278 -0.3651,-14.0182 -18.5585,26.7908 -43.5039,39.8642 -72.6719,37.9644 -0.4311,-0.0286 -0.8756,-0.0598 -1.3138,-0.0947 -1.1018,-0.0972 -2.1765,-0.2931 -3.2488,-0.5734 l -0.5797,-0.1485 c -17.5034,-4.5556 -31.8424,-17.0836 -41.0391,-35.6522 -1.0117,5.3475 -2.0773,10.3827 -3.2242,15.2413 -7.8641,33.3995 -33.7646,74.0418 -66.2808,83.5673 -13.3506,3.9161 -33.7337,4.3124 -54.7529,-15.8023 -1.2285,-0.9385 -2.2898,-1.972 -3.1439,-3.0435 -0.9672,-1.0684 -1.7776,-2.2091 -2.3317,-3.2449 -3.6737,-5.199 -6.9163,-10.6063 -9.8626,-16.4412 -14.5951,15.0137 -31.3855,24.3116 -47.6246,26.297 -16.4574,2.0194 -32.0001,-2.9551 -46.1855,-14.7906 -49.3869,-41.2126 -29.99,-136.0888 -23.616,-167.2597 0.5258,-2.6124 1.084,-5.5363 1.6852,-8.6964 4.7928,-25.1507 12.0433,-63.1587 32.2784,-79.4049 7.1425,-5.7283 18.9516,-7.9373 31.5743,-5.9117 12.2856,1.9698 22.1629,7.4495 27.0941,15.0395 5.1454,7.9311 4.0646,13.9655 3.2363,18.5366 -0.1298,0.722 -0.2744,1.4964 -0.3847,2.3482 -1.3195,9.8425 -4.6094,19.6898 -7.8301,29.3247 -2.596,7.7508 -5.0536,15.0789 -6.387,22.1157 -1.5619,8.2459 -2.9231,17.0495 -4.1587,26.9115 1.125,-4.6669 2.4959,-9.2475 4.2658,-13.6338 7.3795,-18.3036 25.0271,-25.1311 52.418,-20.3766 10.9055,1.8998 18.8297,5.133 24.2524,9.9661 -1.0332,-16.2746 -2.1484,-30.7179 -2.8517,-36.7135 -0.2928,-2.4392 -0.697,-4.7639 -1.0907,-7.0492 -1.9211,-11.1472 -4.5496,-26.4101 13.1269,-37.353 10.4105,-6.4408 33.4491,-12.3071 53.9805,-10.9683 12.7082,0.8257 22.7148,4.3605 28.9287,10.2155 5.1794,4.8773 8.8253,12.1246 11.0902,22.0589 6.2419,-6.8876 13.644,-11.6337 22.0629,-14.1319 20.414,-6.0684 45.665,0.7971 77.2299,21.0263 6.346,4.0669 8.2715,4.0864 15.0651,4.1463 2.5268,0.0317 5.3753,0.0722 8.8338,0.3339 3.2525,0.2426 7.5464,0.5666 11.8131,2.3692 0.6869,-0.8351 1.4089,-1.6192 2.143,-2.3412 12.2125,-11.844 34.4764,-11.4213 50.0038,-6.0018 5.5774,1.9497 10.4425,4.493 14.5031,7.5799 4.9434,-6.5089 12.3353,-10.7025 23.0046,-13.0904 6.5985,-1.4749 23.0769,-3.0847 39.0523,-2.0452 20.5595,1.345 34.0314,6.3771 40.0533,14.9561 2.1081,2.9971 3.7933,6.7029 4.966,10.8769 6.9441,-4.7889 15.7385,-6.245 24.3278,-3.9884 11.3491,2.9869 20.0013,11.5923 22.919,22.4504 3.8097,-2.0046 8.2085,-3.397 13.117,-4.1508 15.3609,-2.3473 33.698,2.1337 43.5988,10.6538 11.5535,9.9442 10.8667,20.4301 9.1843,29.952 1.0429,-3.3469 2.7476,-6.639 5.4796,-9.6701 10.6521,-11.8279 35.6769,-17.0774 52.776,-15.1807 12.9314,1.4468 22.2775,6.7079 27.029,15.2155 6.5758,11.7743 5.1103,27.8912 3.9316,40.8413" /><path
             id="path24"
             style="fill:#1b1464;fill-opacity:1;fill-rule:nonzero;stroke:none"
             d="m 203.6432,244.7765 c -0.1669,-11.3531 -0.5703,-23.8471 -1.1063,-36.343 -1.4236,10.099 -2.3599,18.5468 -0.8034,28.8088 0.1701,1.108 0.9394,4.0359 1.9097,7.5342 z M 589.0873,180.561 c -2.8642,1.5726 -6.1634,2.0698 -9.654,1.5281 l -4.2168,-0.6962 m 234.0524,34.354 c -0.2423,2.6844 -0.4753,5.2115 -0.6012,7.4803 -1.5315,27.2143 -5.6086,49.2602 -12.8279,69.3842 -16.6362,46.4032 -44.5212,67.9802 -83.4375,64.6532 -0.955,-0.0888 -1.9091,-0.2588 -2.8485,-0.5137 l -0.582,-0.1454 c -17.6953,-4.7041 -28.9885,-17.225 -36.4688,-28.6248 -4.5185,2.5293 -9.364,3.8781 -14.2104,3.9039 7.4415,14.2514 8.7026,30.7048 5.4694,44.9872 h 0.006 c -0.0309,0.5012 -0.0661,1.0023 -0.1352,1.516 -0.0845,0.6707 -0.2268,1.3016 -0.3875,1.9122 l -0.1982,1.0591 c -5.7345,23.2129 -20.3417,34.5458 -31.7012,39.9755 -12.4299,7.0291 -27.0777,9.7322 -42.3159,7.7602 -0.6454,-0.0754 -1.2438,-0.2053 -1.8624,-0.362 -0.3838,-0.0576 -0.788,-0.1298 -1.2628,-0.2495 -25.2859,-6.5885 -43.5985,-25.5906 -49.1854,-49.9223 -0.7934,1.3303 -1.6412,2.5993 -2.6022,3.7307 -5.987,7.0452 -15.5273,10.889 -26.1841,10.5519 -6.8721,-0.195 -13.5607,-2.1951 -19.065,-5.485 -9.4059,15.6501 -25.1694,23.836 -43.3627,22.1692 -1.0171,-0.091 -2.0033,-0.2704 -2.9968,-0.5508 l -0.2458,-0.0601 c -31.0575,-7.4205 -43.6297,-42.7572 -37.4695,-71.2443 4.2191,-19.4916 15.6314,-32.5712 31.0428,-36.9561 -6.4531,-2.8205 -12.0563,-7.3358 -15.5185,-13.6593 -1.6359,-2.9874 -2.2692,-6.2036 -1.8494,-9.377 -0.2837,-7.8293 -0.432,-15.423 -0.4382,-22.8283 -18.7038,31.4462 -45.076,46.6424 -76.3294,44.138 -0.9518,-0.0862 -1.8805,-0.2531 -2.8207,-0.5011 l -0.5735,-0.1483 c -19.2824,-5.0134 -34.3817,-20.2034 -42.7697,-42.1364 -1.3572,8.0127 -2.9043,15.9273 -4.731,23.682 -7.6949,32.6747 -32.8955,72.3875 -64.4519,81.6319 -12.7168,3.7303 -32.0941,4.0623 -52.4047,-15.3667 -1.0559,-0.8033 -1.9729,-1.6985 -2.7793,-2.7102 -0.8192,-0.9037 -1.5248,-1.8895 -2.1354,-2.9993 -4.2573,-6.0273 -8.0073,-12.4804 -11.3244,-19.5134 -14.6803,16.1047 -31.9215,26.2247 -48.647,28.2705 -15.713,1.934 -30.5688,-2.8525 -44.1652,-14.1985 -48.1677,-40.1885 -29.0163,-133.9013 -22.724,-164.6986 0.5361,-2.6209 1.0934,-5.5542 1.6954,-8.7111 4.7203,-24.7754 11.8565,-62.214 31.3319,-77.8485 6.5637,-5.269 17.5817,-7.2822 29.5019,-5.3659 11.5574,1.8521 20.7737,6.91 25.2916,13.8665 4.5819,7.0616 3.6394,12.2794 2.8802,16.4729 -0.1459,0.7972 -0.303,1.6575 -0.4328,2.6187 -1.2915,9.6318 -4.5578,19.3929 -7.7128,28.8329 -2.6362,7.8712 -5.1236,15.3105 -6.4811,22.4654 -2.5835,13.6437 -4.6256,28.7963 -6.4182,47.6858 -0.3308,3.4974 -0.9394,7.8075 -1.6161,12.5683 -1.0559,7.4548 -2.3924,16.8638 -2.8051,25.4684 0.9363,-2.8919 1.8127,-5.7818 2.6504,-8.5898 2.4165,-8.0748 3.7406,-16.9671 5.1454,-26.3784 1.8184,-12.1969 3.6955,-24.8065 8.2077,-35.9926 6.8534,-16.9895 23.512,-23.288 49.5066,-18.7597 14.2956,2.4919 23.3005,7.2598 27.8563,15.4582 -1.2504,-21.1334 -2.6022,-38.573 -3.3746,-45.1211 -0.2954,-2.5072 -0.7118,-4.896 -1.1058,-7.1804 -1.8927,-10.9831 -4.2472,-24.6557 11.9103,-34.6589 10.4114,-6.4409 32.9386,-11.8505 52.414,-10.5809 10.9692,0.7149 20.9665,3.5478 27.2906,9.5023 6.3008,5.9335 9.6258,15.3896 11.374,26.1655 6.548,-8.8005 14.6704,-14.7558 24.3465,-17.6293 19.6339,-5.8447 44.1847,0.9451 75.0418,20.717 6.9653,4.4649 9.4456,4.5023 16.1224,4.5621 2.5525,0.0287 5.4479,0.0442 8.9957,0.328 3.5759,0.2679 8.4067,0.6301 12.8239,3.0472 0.9984,-1.4054 2.0608,-2.6566 3.1921,-3.7559 11.4151,-11.0727 32.5097,-10.559 47.2811,-5.4042 6.387,2.2345 11.7626,5.2775 15.9375,8.9543 4.2154,-6.8493 11.1535,-11.7206 23.0264,-14.3795 6.0466,-1.3522 22.1567,-3.0413 38.2986,-1.9885 15.8077,1.0366 31.6443,4.6885 38.0625,13.8387 2.6753,3.8185 4.5051,8.7058 5.5105,14.0525 5.3062,-4.9689 12.2318,-7.5308 19.6711,-7.0453 1.8425,0.1197 3.7173,0.4258 5.6023,0.9202 11.7525,3.0909 20.1779,12.6601 21.7497,24.0947 4.1409,-2.8641 9.3141,-4.8121 15.361,-5.7407 14.6571,-2.234 32.1066,1.9845 41.4745,10.0446 11.6428,10.0227 9.6576,20.4364 7.7392,30.5098 -0.2526,1.3201 -0.5176,2.6978 -0.7631,4.1463 -3.4274,19.9896 -6.5101,36.2976 -9.6951,51.3184 -0.6083,2.8672 -1.2455,5.5485 -1.8462,8.0918 -3.2992,13.8886 -4.9572,20.8576 3.5946,32.9009 2.5019,3.5314 4.2038,4.9589 5.0451,5.5105 2.7057,-2.9837 6.7774,-15.4301 7.981,-33.0335 1.1242,-16.4007 1.0108,-33.0523 0.756,-47.1841 -0.0343,-1.8151 -0.1888,-3.7024 -0.3405,-5.6016 -0.6548,-8.2207 -1.4646,-18.4558 5.8831,-26.613 9.7826,-10.8604 34.0132,-16.1666 50.5142,-14.3235 12.0461,1.3487 20.6983,6.1509 25.0123,13.8761 6.175,11.0501 4.7506,26.7203 3.6068,39.3135" /><path
             id="path26"
             style="fill:#f2f2f2;fill-opacity:1;fill-rule:nonzero;stroke:none"
             d="m 235.1477,328.4368 c 2.9464,-2.9673 5.5681,-6.1688 7.858,-9.6095 2.2884,-3.4475 3.9699,-6.5534 5.0445,-9.3359 1.0684,-2.7793 1.9162,-5.2937 2.5299,-7.5299 0.6123,-2.2442 1.0398,-4.0771 1.2768,-5.5177 l -0.0638,-1.8586 c 0.4042,3.5121 0.4141,6.84 0.0226,9.9816 -0.394,3.1346 -1.0771,5.7949 -2.0483,7.9775 -0.9768,2.1813 -2.1112,4.2092 -3.4027,6.0943 -1.2951,1.8782 -2.5897,3.3925 -3.8849,4.5371 -1.2977,1.1375 -2.5083,2.1112 -3.6204,2.9146 -1.118,0.7971 -2.0761,1.3793 -2.8732,1.7458 z m 24.3372,-224.7599 c 0.2744,-0.2007 0.7279,-0.3118 1.349,-0.3303 0.6145,-0.0249 1.6696,-0.0374 3.1476,-0.0374 1.4771,-0.006 2.7816,0.2705 3.9285,0.8292 1.1384,0.557 2.0608,1.6914 2.7641,3.4112 0.6993,1.7141 0.8413,3.8919 0.4062,6.5316 0.1165,-0.7181 0.066,-1.5276 -0.1545,-2.4251 -0.2231,-0.9054 -1.2954,-2.2464 -3.217,-4.0399 -1.9253,-1.7926 -4.6636,-3.1105 -8.2239,-3.9393 z M 147.8095,284.1653 c -0.0661,4.9116 -0.9114,9.273 -2.5144,13.0756 -1.614,3.7996 -3.4662,6.8225 -5.555,9.065 -2.0957,2.243 -4.1213,4.0646 -6.0715,5.47 -1.9574,1.3986 -3.7126,2.3473 -5.2682,2.8324 l -1.9792,0.7815 c 2.5144,-1.8026 4.8175,-3.8282 6.9132,-6.0716 2.0863,-2.2433 3.8539,-4.3543 5.2869,-6.3357 1.4366,-1.9822 2.7374,-3.9302 3.9169,-5.8263 1.1718,-1.9038 2.067,-3.6023 2.6838,-5.1018 0.6146,-1.5029 1.1407,-2.8324 1.5789,-3.9918 0.4351,-1.1622 0.7118,-2.0984 0.8314,-2.8165 z m 31.7157,49.9221 c 9.0181,11.0874 20.3992,15.6656 34.1464,13.7378 13.7441,-1.9349 25.4498,-8.6995 35.1128,-20.2881 9.6639,-11.5985 16.6719,-25.784 21.0294,-42.5591 4.3537,-16.7814 7.5962,-34.6623 9.7322,-53.6502 2.133,-18.993 2.9023,-37.5863 2.3227,-55.7881 -0.5837,-18.2064 -1.4772,-33.7524 -2.6878,-46.6399 -1.2099,-12.8902 -2.4602,-22.1468 -3.7554,-27.7778 -0.6052,-2.3156 -3.4693,-4.0235 -8.5861,-5.1043 -5.1237,-1.084 -11.0943,-1.4522 -17.9283,-1.0965 -6.8377,0.3561 -13.5491,1.1036 -20.1373,2.238 -6.5985,1.1336 -12.0929,2.7561 -16.5048,4.8639 -4.4112,2.1073 -6.3173,4.3235 -5.7087,6.6422 4.203,20.8871 6.7111,58.502 7.5238,112.8384 0.8104,54.3303 -1.8182,81.9862 -7.8928,82.9619 -2.0413,0.4065 -4.6817,-2.9869 -7.9373,-10.171 -3.2542,-7.1867 -6.6762,-17.1147 -10.2623,-29.7726 -3.5915,-12.6632 -6.3388,-25.9245 -8.2519,-39.7882 3.1632,-14.7588 5.1454,-27.6083 5.9644,-38.5605 0.1454,-3.9223 -3.8977,-7.0515 -12.1332,-9.3855 -8.2434,-2.3389 -16.6274,-3.0413 -25.1569,-2.0957 -8.5326,0.9386 -12.9912,3.3458 -13.3812,7.2247 -1.6107,12.7927 -4.411,27.6046 -8.4033,44.4458 -4.0017,16.8319 -8.6811,31.8331 -14.0409,44.9972 -5.3662,13.1604 -10.089,19.4094 -14.1658,18.7412 -3.3622,-0.555 -5.7697,-5.754 -7.2312,-15.6036 -1.4655,-9.8455 -1.7839,-22.1589 -0.9581,-36.9272 0.8223,-14.775 2.2155,-30.3706 4.1751,-46.8031 1.9596,-16.435 4.767,-32.419 8.4252,-47.9494 3.662,-15.5396 7.5931,-27.8912 11.8122,-37.0477 0.7943,-1.8462 -1.2696,-3.9076 -6.1911,-6.1912 -4.925,-2.2875 -9.8995,-3.8449 -14.9375,-4.67 -5.0383,-0.8283 -8.5209,-0.6619 -10.4332,0.5037 -4.7452,4.8844 -9.5372,13.8302 -14.381,26.8336 -4.8487,12.9971 -9.2064,27.9255 -13.0822,44.786 -3.8749,16.8536 -6.4842,34.5962 -7.8168,53.2244 -1.3357,18.6276 -1.1625,35.964 0.5168,52.007 1.673,16.0418 6.2637,29.7289 13.7695,41.0658 7.4991,11.3306 17.487,18.0229 29.9645,20.0712 26.864,4.4113 49.0558,-10.6724 66.5549,-45.2437 4.925,19.5258 11.8917,34.8395 20.9152,45.9306" /><path
             id="path28"
             style="fill:#f2f2f2;fill-opacity:1;fill-rule:nonzero;stroke:none"
             d="m 358.8273,277.4191 c 5.1072,-2.6155 10.2651,-6.2597 15.4704,-10.9491 5.2052,-4.6885 9.2225,-8.8954 12.0486,-12.6187 l 4.1843,-5.224 c -1.7485,4.6372 -3.97,8.7718 -6.6544,12.3951 -2.6901,3.6241 -5.4314,6.4346 -8.2233,8.4416 -2.7918,2.0032 -5.4672,3.6581 -8.0229,4.966 -2.5549,1.3014 -4.5867,2.0752 -6.1064,2.3247 z m 10.1293,-99.964 c 0.1647,1.9947 -0.0785,4.9753 -0.7265,8.9365 -0.6497,3.9574 -1.3745,6.1129 -2.175,6.478 -5.4003,-1.6254 -11.0367,-7.0489 -16.9143,-16.2647 -5.8757,-9.2225 -7.5269,-15.7127 -4.9332,-19.472 0.6355,-0.8827 3.0147,-0.004 7.1394,2.6496 4.1213,2.6467 8.0886,5.8821 11.8944,9.7143 3.8067,3.8214 5.709,6.4811 5.7152,7.9583 z m -29.719,106.7263 c 11.5164,1.8908 22.1451,0.1829 31.8844,-5.1142 9.7384,-5.2994 17.7324,-12.7355 23.9837,-22.299 6.2518,-9.569 11.6997,-20.253 16.3502,-32.0531 4.648,-11.8029 8.1198,-23.5553 10.4066,-35.2488 2.2915,-11.6957 3.8321,-21.8546 4.6326,-30.4654 0.7971,-8.6181 0.9131,-14.9445 0.3433,-18.9742 -0.5703,-4.0397 -10.4392,-3.9325 -29.6153,0.3115 -16.2677,-17.9507 -34.0041,-28.4956 -53.1926,-31.6474 -11.7556,-1.9315 -21.7817,0.9799 -30.0739,8.7347 -8.2939,7.7508 -13.131,15.8264 -14.5109,24.2268 -1.2597,7.6763 -1.1058,14.9692 0.4723,21.8824 1.5735,6.91 4.2667,13.0167 8.0796,18.3254 3.8058,5.2999 7.956,10.0485 12.4432,14.239 4.4858,4.1842 9.4774,7.8967 14.9848,11.1447 5.5015,3.2425 10.0766,5.7756 13.7191,7.6087 3.6357,1.8275 7.2023,3.4002 10.681,4.7109 -3.6357,19.1135 -9.5278,27.9987 -17.6826,26.6621 -1.9216,-0.3177 -4.0234,-2.139 -6.3079,-5.4694 -2.2875,-3.3335 -4.3645,-7.1836 -6.2317,-11.5574 -1.8689,-4.3702 -3.611,-8.7843 -5.2177,-13.2367 -1.6141,-4.4555 -2.8993,-8.2363 -3.8642,-11.3522 l -1.0893,-4.6134 c -11.1161,-1.3325 -16.9073,-0.5578 -17.3798,2.3188 -0.9077,5.5176 -1.3879,11.0438 -1.4312,16.5801 -0.0474,5.5395 0.4373,10.8488 1.4499,15.9469 1.0108,5.091 2.2969,9.9847 3.8687,14.6764 1.5695,4.6916 3.5768,8.9614 6.0282,12.8177 2.4446,3.8471 5.0125,7.3482 7.6994,10.5023 2.6825,3.147 5.7189,5.6778 9.1007,7.5929 3.3808,1.9037 6.872,3.1603 10.4694,3.7499" /><path
             id="path30"
             style="fill:#f2f2f2;fill-opacity:1;fill-rule:nonzero;stroke:none"
             d="m 449.1391,386.8543 c 5.4655,-3.2961 10.1106,-7.2094 13.9422,-11.7556 3.8214,-4.5473 6.3335,-8.1983 7.5237,-10.9593 l 1.8494,-4.4988 c -0.749,4.5527 -2.0288,8.5923 -3.8376,12.1184 -1.8153,3.5192 -3.7811,6.1526 -5.917,7.8993 -2.1331,1.739 -4.2886,3.2315 -6.4619,4.4796 -2.181,1.2415 -3.9044,2.0046 -5.1843,2.2912 z M 460.3646,268.962 c 0.1579,0.5159 0.3217,1.0335 0.4827,1.5565 0.1568,0.5167 0.2518,1.4553 0.2767,2.8165 0.0224,1.3544 -0.2418,2.6061 -0.8005,3.7493 -0.557,1.1376 -1.6946,2.0614 -3.4087,2.7669 -1.7203,0.6994 -3.9163,0.955 -6.5948,0.7654 0.4797,0.0785 1.2286,0.0162 2.2496,-0.1857 1.0148,-0.2043 2.4228,-1.2634 4.2163,-3.1889 1.7954,-1.9217 2.9868,-4.6817 3.5787,-8.28 z m -17.3237,125.7596 c 7.1978,1.1817 13.616,-0.4156 19.2649,-4.7826 5.6426,-4.3739 9.6607,-9.3172 12.0421,-14.8371 2.3888,-5.5208 3.75,-10.8397 4.0998,-15.9563 0.3503,-3.6396 0.2392,-7.4803 -0.328,-11.51 -0.5735,-4.0397 -1.7668,-8.3622 -3.5983,-12.9725 -1.8301,-4.6131 -4.8776,-8.5604 -9.1403,-11.8463 -4.2659,-3.287 -9.3989,-5.4238 -15.3944,-6.4097 -5.5208,-0.9076 -10.5115,-0.4949 -14.9831,1.2354 -4.4773,1.7265 -8.047,4.3452 -10.7121,7.8519 -2.6723,3.4974 -4.7206,6.9854 -6.1518,10.4454 -1.4329,3.4594 -2.4188,6.8658 -2.9704,10.2302 -1.5752,9.5916 0.2772,19.6867 5.5579,30.2894 5.2806,10.5993 12.7168,16.6872 22.3137,18.2622 z m -12.325,-113.9979 c 0.5284,4.273 5.5797,6.8846 15.158,7.8458 9.5723,0.955 15.0766,0.0723 16.5104,-2.6467 1.9448,-4.3637 3.8228,-9.0459 5.6319,-14.0431 1.8011,-5.004 3.5058,-10.8806 5.1128,-17.6392 1.6004,-6.7578 2.9968,-12.6249 4.1842,-17.6034 1.1849,-4.9785 2.6255,-12.2599 4.3234,-21.8328 1.6946,-9.5816 2.9362,-16.7652 3.7242,-21.564 0.788,-4.8018 2.1268,-13.3251 4.0172,-25.5781 1.8842,-12.2545 3.2262,-20.7831 4.0142,-25.5796 0.5896,-3.5974 -2.8364,-6.7484 -10.2748,-9.4461 -7.4454,-2.7034 -15.2288,-4.036 -23.3634,-4.0196 -8.1331,0.0125 -12.6949,1.5469 -13.6874,4.5868 -12.7547,46.1917 -17.8752,95.3671 -15.3507,147.52" /><path
             id="path32"
             style="fill:#f2f2f2;fill-opacity:1;fill-rule:nonzero;stroke:none"
             d="m 578.7737,146.4931 c 0.195,0.2806 0.498,0.6993 0.9006,1.2563 0.4002,0.5587 0.9113,1.5636 1.5386,3.026 0.6208,1.4522 0.8943,2.7878 0.8189,4.0133 -0.0785,1.2166 -0.854,2.5679 -2.3289,4.0521 -1.4777,1.4785 -3.7715,2.7062 -6.8842,3.6737 0.2741,-0.2044 0.6168,-0.394 1.017,-0.5735 0.3977,-0.1817 1.0372,-0.6953 1.9132,-1.5307 0.8795,-0.8447 1.5851,-1.7739 2.1234,-2.7949 0.5354,-1.0202 0.9108,-2.5651 1.1276,-4.6154 0.212,-2.0639 0.1389,-4.2296 -0.2262,-6.5069 z m -64.2373,211.1862 c 0.4391,0.3149 0.8005,0.7438 1.0808,1.2852 0.2807,0.5394 0.6653,1.5874 1.1478,3.1448 0.4816,1.5593 0.5672,2.9239 0.2486,4.1079 -0.3178,1.1758 -1.2634,2.4361 -2.8384,3.7848 -1.5757,1.3391 -3.9016,2.3732 -6.9769,3.1037 0.2781,-0.2044 0.6208,-0.3963 1.0185,-0.5734 0.4003,-0.1834 1.0834,-0.624 2.0631,-1.3233 0.9805,-0.7055 1.7368,-1.5627 2.2751,-2.5837 0.5354,-1.0202 1.1415,-2.4639 1.8184,-4.3203 0.6743,-1.8655 0.724,-4.0731 0.163,-6.6257 z m 63.0306,-190.321 c 4.0739,0.6707 7.105,-2.4077 9.0904,-9.2231 1.9783,-6.8246 2.3817,-13.7721 1.2067,-20.8686 -1.1817,-7.0863 -3.6014,-10.6903 -7.2785,-10.8006 -6.1189,-0.2642 -11.5736,-0.4226 -16.3687,-0.4691 -4.7956,-0.0508 -8.1773,-0.1106 -10.133,-0.1865 -1.963,-0.0746 -4.8999,-0.1883 -8.8137,-0.3405 -3.9195,-0.1445 -9.2792,-0.5346 -16.0691,-1.1593 -2.4414,-0.1545 -4.6349,1.2129 -6.5851,4.0935 -7.7168,0.4597 -11.7091,2.2688 -11.9795,5.4226 -0.864,6.7556 -3.7848,29.8035 -8.7656,69.149 -4.9782,39.3343 -8.75,72.7775 -11.2955,100.326 -2.5557,27.5377 -3.5518,49.3642 -2.9908,65.4752 -0.0349,3.1913 2.2875,5.548 6.9729,7.0577 4.6755,1.5058 9.5219,1.9877 14.5406,1.4616 5.0134,-0.5324 7.9155,-1.7204 8.7126,-3.5572 5.9646,-13.8039 13.0223,-43.6867 21.1873,-89.6514 8.1603,-45.9609 14.5371,-85.9357 19.1349,-119.918 2.1609,0.3527 8.6358,1.4174 19.4341,3.1887" /><path
             id="path34"
             style="fill:#f2f2f2;fill-opacity:1;fill-rule:nonzero;stroke:none"
             d="m 608.9462,283.2049 c 0.0406,0.4989 0.0817,0.9961 0.1222,1.5004 0.038,0.4949 0.013,1.415 -0.0847,2.757 -0.0973,1.3331 -0.3343,2.5897 -0.7096,3.7621 -0.3775,1.1687 -1.0335,2.1702 -1.9658,3.0033 -0.9354,0.8274 -2.0792,1.2603 -3.4336,1.2852 0.2353,0.0372 0.6262,-0.0824 1.1625,-0.3628 0.5352,-0.2829 1.3419,-1.4423 2.4134,-3.4843 1.0746,-2.0421 1.906,-4.8626 2.4956,-8.4609 z m -16.1107,13.9839 c -0.0731,4.1751 2.3032,6.349 7.1246,6.5287 4.8198,0.1732 7.7071,-1.1375 8.6582,-3.9356 1.345,-4.4609 2.6807,-9.2319 4.0073,-14.3113 1.3241,-5.0816 2.666,-11.0151 4.0303,-17.8149 1.3606,-6.7988 2.5464,-12.7011 3.551,-17.7074 1.0085,-5.0094 2.3286,-12.3103 3.9637,-21.892 1.6355,-9.5916 2.8485,-16.7814 3.6362,-21.5801 0.7872,-4.7991 2.1549,-13.3189 4.1021,-25.5634 1.9479,-12.2443 3.3179,-20.7667 4.1057,-25.5632 0.5921,-3.5977 -0.9074,-6.4329 -4.4958,-8.5008 -3.5921,-2.0667 -7.4679,-2.7598 -11.6297,-2.0917 -4.1624,0.6676 -6.6203,2.5455 -7.3709,5.6274 -10.2303,46.6041 -16.7899,95.5426 -19.6827,146.8043" /><path
             id="path36"
             style="fill:#f2f2f2;fill-opacity:1;fill-rule:nonzero;stroke:none"
             d="m 770.417,185.7186 c 0.4788,0.0785 1.1089,-0.003 1.8876,-0.2455 0.7778,-0.2401 2.0792,-0.2741 3.8974,-0.0978 1.8175,0.1701 3.4718,0.5704 4.9784,1.1872 1.4959,0.6148 2.6776,2.0398 3.5479,4.2792 0.8634,2.2317 1.1398,5.0476 0.8283,8.4478 0.0414,-0.2393 0.0187,-0.4913 -0.0598,-0.7467 -0.0848,-0.2619 -0.1857,-0.7693 -0.3053,-1.5284 -0.1228,-0.7591 -0.3753,-1.4842 -0.7538,-2.1546 -0.3838,-0.6846 -0.9348,-1.4499 -1.6543,-2.3071 -0.7242,-0.8572 -1.5718,-1.6793 -2.5548,-2.4509 -0.98,-0.7792 -2.3318,-1.5531 -4.0513,-2.3286 -1.7212,-0.7787 -3.6397,-1.4624 -5.7603,-2.0546 z m -39.2692,149.1358 c 3.5099,-1.8898 6.8752,-3.9886 10.0891,-6.2886 3.2074,-2.31 5.722,-4.4833 7.537,-6.5254 1.815,-2.0452 3.4282,-3.9985 4.8393,-5.8572 1.4151,-1.8624 2.3219,-3.255 2.7196,-4.1718 l 1.0148,-1.6829 c -1.192,4.2418 -2.9217,8.0218 -5.1866,11.3468 -2.2719,3.3202 -4.5884,5.7685 -6.938,7.3599 -2.3576,1.582 -4.5907,2.8137 -6.7051,3.7026 -2.1212,0.8827 -3.9325,1.4459 -5.4508,1.6914 z m -21.2057,7.604 c 12.4753,2.0474 23.54,0.2928 33.2008,-5.266 9.6576,-5.5644 17.3049,-13.4821 22.9354,-23.7668 5.6271,-10.2869 10.3382,-21.7085 14.1248,-34.266 3.7848,-12.562 6.2923,-25.2065 7.5237,-37.9358 1.2231,-12.7355 1.8912,-23.8966 1.9893,-33.4905 0.0939,-9.5907 -0.3061,-16.9259 -1.1951,-21.9991 -0.6893,-3.3171 -3.7678,-5.1732 -9.2443,-5.5837 -5.4757,-0.4062 -11.3865,-0.0847 -17.7137,0.9737 -6.3335,1.0497 -12.1278,2.5657 -17.3775,4.5377 -5.2526,1.9667 -7.8766,3.6955 -7.8704,5.1735 0.2423,1.5183 0.3053,4.1191 0.1981,7.7959 0.1701,4.9527 0.2588,8.9101 0.2713,11.8689 0.003,2.9583 0.0661,7.4602 0.1826,13.5173 0.1133,6.0528 0.0824,11.0996 -0.0848,15.1396 -0.1732,4.0365 -0.3784,9.0499 -0.6239,15.0485 -0.2455,5.9962 -0.6559,11.1005 -1.2232,15.3227 -0.5694,4.2131 -1.2438,8.7214 -2.0318,13.5235 -0.7878,4.7957 -1.8088,8.7563 -3.0592,11.8783 -1.254,3.1199 -2.6558,6.0313 -4.2066,8.7308 -1.5534,2.7008 -3.3469,4.6255 -5.381,5.7699 -2.0358,1.1432 -4.3778,1.4998 -7.014,1.0647 -10.0744,-1.6543 -20.418,-14.4403 -31.0267,-38.3525 5.9015,-20.9625 12.3826,-52.9081 19.431,-95.851 0.593,-3.5991 -2.725,-6.6716 -9.9434,-9.2078 -7.2227,-2.5356 -14.6174,-3.6365 -22.1888,-3.2737 -7.5775,0.3529 -11.6555,2.3352 -12.2473,5.9335 -0.0754,0.4785 -2.3071,12.9248 -6.6833,37.3374 -4.3792,24.4102 -7.59,44.3293 -9.629,59.7656 -2.0418,15.4262 -2.8919,28.1024 -2.5455,38.0149 0.091,3.9543 4.4836,7.2031 13.1831,9.7393 8.6964,2.537 13.8231,2.0854 15.3726,-1.355 1.7903,-3.4027 3.5013,-7.0639 5.1329,-10.9842 11.0067,24.4723 23.5874,37.8737 37.7439,40.1964" /><path
             id="path38"
             style="fill:#af106f;fill-opacity:1;fill-rule:nonzero;stroke:none"
             d="m 586.8431,414.3274 c -27.5539,-5.1928 -45.1296,-32.1267 -40.0819,-58.8929 4.0584,-21.5328 17.4146,-35.875 40.479,-38.9069 -3.2805,-4.729 -13.2622,-19.0559 -14.1636,-19.5446 -1.0808,-0.5859 9.5854,-6.6351 10.66,-6.7833 1.0706,-0.1525 3.3684,4.1553 3.3684,4.1553 l 7.5969,-0.9961 c 0,0 -0.0131,-1.4615 0.0785,-2.8704 0.3404,7.1782 0.9952,23.1934 0.2361,26.2883 0,0 6.2107,-0.1327 8.5008,0.2704 1.853,0.3279 7.1966,-16.577 9.9131,-24.5103 l 1.8362,-0.8096 c 0,0 10.7292,5.5672 9.6988,7.6949 -0.7404,1.5344 -9.2886,11.6039 -15.531,17.4898 24.9173,4.7143 41.3523,31.6941 37.1049,57.3335 -4.7041,28.4009 -32.1415,45.2772 -59.6962,40.0819" /><path
             id="path40"
             style="fill:#d7186b;fill-opacity:1;fill-rule:nonzero;stroke:none"
             d="m 644.1633,377.8795 c 4.6094,-24.4536 -12.2607,-48.1606 -37.6818,-52.9531 -25.4211,-4.7929 -49.7645,11.1472 -54.3744,35.5983 -4.6095,24.4539 12.2606,48.1646 37.6818,52.9534 25.4211,4.7929 49.7636,-11.1447 54.3744,-35.5986" /><path
             id="path42"
             style="fill:#ff217a;fill-opacity:1;fill-rule:nonzero;stroke:none"
             d="m 608.3597,315.2857 c 0,0 8.7095,-17.2009 9.4811,-17.9127 0.7716,-0.7126 4.2752,0.9139 3.7182,1.9497 -0.5547,1.0341 -12.462,17.9073 -13.1993,15.963" /><path
             id="path44"
             style="fill:#ff217a;fill-opacity:1;fill-rule:nonzero;stroke:none"
             d="m 640.2206,378.2636 c 4.2355,-22.4685 -11.3142,-44.2633 -34.7312,-48.6768 -23.4179,-4.415 -45.832,10.2212 -50.0706,32.6894 -4.2347,22.4722 11.315,44.2639 34.7312,48.6783 23.4181,4.4135 45.8359,-10.2218 50.0706,-32.6909" /><path
             id="path46"
             style="fill:#ff7a8f;fill-opacity:1;fill-rule:nonzero;stroke:none"
             d="m 621.1502,393.916 c 2.0605,-4.455 -1.2503,-9.559 -7.3956,-11.4061 -6.1463,-1.8462 -12.8015,0.2713 -14.8623,4.7237 -2.0605,4.4552 1.2504,9.5618 7.3959,11.4089 6.1461,1.843 12.8012,-0.2713 14.862,-4.7265" /><path
             id="path48"
             style="fill:#ff7a8f;fill-opacity:1;fill-rule:nonzero;stroke:none"
             d="m 630.6494,377.9303 c 1.8615,-2.2558 0.4981,-5.5863 -3.0475,-7.4387 -3.5473,-1.8499 -7.9333,-1.5222 -9.796,0.7336 -1.8618,2.2564 -0.4972,5.5859 3.0475,7.4392 3.5479,1.8502 7.9342,1.5222 9.796,-0.7341" /><path
             id="path50"
             style="fill:#ff217a;fill-opacity:1;fill-rule:nonzero;stroke:none"
             d="m 603.5187,317.0489 c -2.2943,-0.4065 -8.5045,-0.2713 -8.5045,-0.2713 0.7592,-3.0932 0.1072,-19.11 -0.233,-26.2874 0.0785,-1.2347 0.2393,-2.4267 0.5548,-2.5611 0.6743,-0.2868 16.539,0.2356 17.532,0.7614 0.9921,0.5301 0.5096,3.8696 0.5096,3.8696 l 0.0536,-0.0215 c -2.7187,7.9341 -8.0631,24.8374 -9.9125,24.5103" /><path
             id="path52"
             style="fill:#d7186b;fill-opacity:1;fill-rule:nonzero;stroke:none"
             d="m 589.2783,315.212 c 0,0 -11.9826,-16.4412 -12.1464,-18.2843 -0.1639,-1.8431 6.7966,-3.954 6.7966,-3.954 0,0 9.7889,18.0827 8.5697,22.0649 0,0 -1.578,1.1571 -3.2199,0.1734" /><path
             id="path54"
             style="fill:#ff638b;fill-opacity:1;fill-rule:nonzero;stroke:none"
             d="m 598.0167,291.3287 c 0,0 1.1151,20.5614 0.6551,21.5391 -0.457,0.9796 3.3426,1.7325 3.6612,1.5307 0.3155,-0.2044 10.2087,-22.1406 8.9079,-23.0862 -1.2991,-0.9417 -13.3129,-1.6793 -13.2242,0.0164" /><path
             id="path56"
             style="fill:#f2f2f2;fill-opacity:1;fill-rule:nonzero;stroke:none"
             d="m 99.3597,439.4361 c 0.3217,0.0219 0.6684,0.003 1.0469,-0.0567 0.9827,-0.1545 2.0389,-1.4933 3.1569,-2.9114 0.7126,-0.9077 1.4873,-1.8936 2.3947,-2.7726 -0.8949,-0.2928 -1.7864,-0.5896 -2.6751,-0.8787 -2.4959,-0.8261 -4.9691,-1.645 -7.423,-2.4018 -0.1795,5.294 0.8501,7.4557 1.7926,8.3313 0.4569,0.4158 1.0179,0.6457 1.707,0.6899 z m 64.5653,-35.3684 c -0.5114,0.8952 -1.0973,2.2657 -1.7016,4.3832 -0.7243,2.5464 -0.8827,5.1826 -0.4703,8.2426 0.07,0.0348 0.1463,0.066 0.2208,0.1009 m 88.3817,0.8416 c -0.5105,0.885 -1.0995,2.2558 -1.7016,4.3761 -0.7305,2.558 -0.8819,5.1931 -0.4686,8.246 0.0746,0.0286 0.1477,0.0661 0.2231,0.097 0.0598,0.0289 0.1196,0.0598 0.1794,0.0824 1.0497,-2.3349 2.1895,-9.1309 1.7677,-12.8015 z m 39.2732,16.2638 c -1.1285,-0.296 -2.2541,-0.6642 -3.3724,-1.0962 -0.652,3.3622 -1.6257,6.6986 -2.9015,9.8907 1.7864,-3.3971 4.0586,-6.3111 6.2739,-8.7945 z m 39.1961,15.8995 c 0.0249,-1.2129 0.0629,-2.4299 0.1133,-3.6451 -0.9014,0.9474 -1.8088,1.8998 -2.6977,2.8293 0.8354,0.1857 1.6985,0.4601 2.5844,0.8158 z m 61.9302,-3.7973 0.028,-0.5882 c 0.129,-2.3763 0.1103,-4.8089 0.0505,-7.2224 -1.8338,5.7158 -3.2145,11.0157 -2.1524,15.1365 0.4227,1.6293 0.7694,2.6977 1.0367,3.4001 0.3464,-1.5749 0.7279,-4.7041 1.0372,-10.726 z m 145.6389,16.8925 c -0.996,1.9908 -6.3994,7.8744 -14.8728,16.7341 5.9582,1.279 12.1122,6.6138 13.9079,12.1648 1.8377,5.6818 0.7569,11.1388 -3.1322,15.7831 -6.7587,8.0725 -20.1995,11.7966 -28.8114,10.6251 -17.3857,-2.3732 -30.2128,-18.4419 -28.0139,-35.085 1.0374,-7.8868 5.335,-13.9677 9.4433,-18.5655 -1.5253,-0.4003 -3.0251,-0.9131 -4.4617,-1.5245 -6.8814,23.6441 -20.4265,36.5341 -38.0679,36.3422 -0.9394,0.1258 -1.9675,0.0754 -2.9908,-0.1423 -1.3513,-0.2268 -2.5549,-0.6994 -3.3965,-1.3077 -7.0966,-3.5161 -13.9173,-12.1371 -17.528,-21.9517 -7.1938,10.5528 -17.0309,15.3666 -29.2587,14.3518 -0.7506,-0.0624 -1.4749,-0.207 -2.3451,-0.4686 -5.4944,-1.6047 -10.1387,-4.9348 -14.1591,-10.1744 -1.1692,0.265 -2.3572,0.3784 -3.6045,0.3495 -4.576,-0.1258 -9.1533,-1.8708 -12.3678,-4.6916 -0.0289,0.0351 -0.0598,0.0629 -0.095,0.0981 9.5032,6.6038 11.4914,19.6483 8.3942,29.6558 -3.2796,10.5899 -11.6172,16.7028 -21.8264,16.0378 -0.1282,-0.007 -0.2642,-0.0218 -0.3932,-0.032 -0.7724,-0.0621 -1.5191,-0.2206 -2.2751,-0.4476 -6.7742,-1.5687 -12.096,-6.1027 -14.9819,-12.7726 -3.0343,-7.0181 -3.0473,-15.8055 -0.2081,-22.9519 -5.709,2.3071 -12.1558,3.3469 -17.1505,2.6374 -17.386,-2.3786 -30.2201,-18.4442 -28.0202,-35.085 0.2804,-2.1515 0.8096,-4.1678 1.5098,-6.0616 -6.3998,12.8738 -18.2313,22.6077 -35.1899,21.5011 -0.9411,-0.0187 -1.6279,-0.1982 -2.4035,-0.4561 -13.7344,-3.0033 -21.3097,-9.8504 -20.8871,-18.8334 -0.6519,-0.9014 -1.2705,-1.8488 -1.8377,-2.8293 -0.693,3.8027 -1.4173,7.5972 -2.1764,11.3874 -0.3217,1.578 -0.5927,3.2984 -0.8819,5.0825 -1.4995,9.3047 -3.3661,20.8893 -13.1581,24.4125 -6.3459,2.2782 -11.4625,1.9253 -15.2289,-1.0553 -6.4338,-5.0919 -8.5955,-17.5692 -6.5874,-38.0974 -6.6708,5.0358 -14.6424,7.3894 -23.2696,6.8247 -0.7911,-0.0436 -1.6449,-0.1981 -2.4009,-0.4561 -12.5691,-2.7351 -19.982,-8.6998 -20.8273,-16.5832 -2.4197,2.334 -5.4672,2.9735 -8.413,1.7986 -0.8943,-0.0908 -1.7832,-0.2013 -2.6659,-0.3209 0.07,0.1258 0.1397,0.2486 0.2021,0.3778 2.2028,4.2923 2.2657,9.7112 0.1771,15.6694 -3.2332,9.2355 -11.4162,18.7883 -19.0355,22.2205 -13.8948,6.2597 -30.8868,1.474 -40.4093,-11.4044 -20.6027,-27.8812 -13.7245,-82.1732 12.9127,-101.9165 6.8556,-5.0794 15.1016,-7.3446 23.2999,-6.8122 6.7998,0.4436 13.5746,2.8105 19.4948,7.105 6.5315,4.7415 11.3995,11.535 14.5006,20.2283 7.6972,-13.0635 22.6573,-23.9051 41.9655,-14.6732 5.5619,2.6625 10.2093,6.5851 13.8512,11.6838 4.1655,-8.7508 11.9801,-12.6048 24.3876,-12.0912 1.283,0.0536 2.5495,0.074 3.7879,0.0987 8.8481,0.161 17.2035,0.3016 19.882,11.7394 0.0535,0.2205 0.0946,0.4413 0.132,0.6619 7.6286,-3.0405 16.0252,-2.5362 24.3876,1.4686 6.2759,3.0064 11.3616,7.5651 15.1464,13.5768 5.0794,-5.3722 11.7743,-9.2154 18.2367,-10.3949 14.2988,-2.6272 30.8098,3.6334 39.2476,14.6486 3.3146,-3.2604 8.123,-4.9156 13.5295,-4.663 6.018,0.394 11.8729,2.8633 15.6881,6.8153 7.1563,-4.3996 16.4347,-3.4509 23.4615,2.5135 2.4956,2.1214 4.0708,4.7041 4.7826,7.8556 6.8976,-7.0514 19.7082,-9.3512 28.2158,-4.515 2.0358,1.1506 3.6995,2.8982 4.9623,5.2144 12.0711,-6.5285 27.6557,0.4354 37.7921,8.7627 4.3583,-0.7818 9.1531,-1.1625 12.994,1.0457 4.4958,-3.642 9.6537,-6.1277 14.6197,-7.039 16.344,-3.0025 37.83,5.5168 43.7496,22.964 2.5648,7.5677 2.0676,16.1513 -1.3289,22.9666" /><path
             id="path58"
             style="fill:#1b1464;fill-opacity:1;fill-rule:nonzero;stroke:none"
             d="m 95.4266,427.8903 c -0.2517,-0.0754 -0.4787,-0.2392 -0.7211,-0.3495 -0.5114,6.84 0.4218,13.0315 5.9675,12.1649 2.8361,-0.4414 4.5238,-5.394 8.1261,-7.4826 -4.5122,-1.446 -8.9771,-2.9971 -13.3725,-4.3328 z m 151.6258,2.3443 c 0.0125,0.002 0.0218,0.006 0.0343,0.009 0.7878,0.2146 1.5562,0.8518 2.4165,0.7344 0.0349,-0.006 0.0451,-0.002 0.0763,-0.006 m -88.9552,-14.2979 c 0.0122,0.003 0.0216,0.006 0.0341,0.009 m -61.2868,-12.32 c -0.0062,-0.2931 -0.0156,-0.5828 -0.028,-0.8697 -0.0227,0.2962 -0.0411,0.5859 -0.0825,0.8912 0.0351,-0.009 0.0762,-0.0125 0.1105,-0.0215 z m 224.1485,44.6351 c 0.6239,0.0312 1.254,0.0746 1.9627,0.1942 m 209.7901,12.1309 c -1.112,2.2317 -9.5785,11.1302 -16.4627,18.316 0.6208,0.0326 1.2509,0.0763 1.9635,0.1959 5.5891,0.9448 11.7369,6.0528 13.4595,11.3803 5.4383,16.8139 -17.7962,26.4336 -30.5067,24.6945 -15.9461,-2.1812 -29.0404,-17.2289 -26.8827,-33.6016 1.0273,-7.7859 5.4414,-14.0244 10.6662,-19.5352 -2.7003,-0.491 -5.3886,-1.3697 -7.8432,-2.5702 -5.1392,18.7433 -16.2141,37.088 -37.3974,36.8737 -0.8096,0.1111 -1.679,0.0572 -2.5929,-0.1384 -1.1812,-0.1981 -2.1934,-0.6046 -3.028,-1.1883 -7.7479,-3.8338 -14.7333,-13.848 -17.7355,-23.8101 -6.1704,10.2931 -15.6067,17.2375 -29.5208,16.0781 -0.6993,-0.0567 -1.3366,-0.2013 -1.9285,-0.3909 -0.0566,-0.0156 -0.1074,-0.0125 -0.161,-0.0278 -6.1438,-1.7957 -10.5114,-5.6438 -14.0051,-10.4046 -1.1942,0.3436 -2.5143,0.5573 -4.1026,0.523 -4.4685,-0.0941 -9.3399,-1.9627 -12.4619,-5.2682 -0.658,0.819 -1.408,1.5446 -2.2689,2.1453 18.1242,10.3484 12.3679,46.1514 -11.4718,44.1981 -0.7189,-0.0598 -1.3646,-0.2084 -1.9729,-0.4074 -0.0397,-0.009 -0.0746,-0.006 -0.1159,-0.0155 -16.4665,-3.8126 -19.9415,-24.7085 -12.6919,-37.1829 -6.3708,3.3621 -14.1131,4.8557 -19.7722,4.0801 -15.946,-2.1801 -29.0441,-17.2289 -26.8858,-33.6038 1.0273,-7.782 5.4417,-14.0205 10.6657,-19.535 -2.3661,-0.4292 -4.7104,-1.182 -6.9095,-2.1657 -3.2105,19.6152 -16.977,37.1209 -38.781,35.6398 -0.7623,-0.0536 -1.4392,-0.2107 -2.0795,-0.419 -0.003,0 -0.006,0 -0.009,-0.003 -10.2249,-2.2337 -20.6283,-7.7134 -19.8193,-17.9374 -1.5185,-2.0296 -2.7757,-4.2279 -3.7927,-6.548 -0.9014,5.095 -1.8502,10.1775 -2.8673,15.2436 -1.9604,9.7492 -2.3576,24.6146 -13.1899,28.5097 -21.8741,7.8611 -22.2352,-18.8521 -19.7124,-41.002 -6.4204,5.8348 -14.8124,9.2823 -24.957,8.5955 -0.7592,-0.0536 -1.44,-0.2112 -2.077,-0.4195 -0.003,-0.003 -0.006,-0.003 -0.009,-0.003 -10.2308,-2.2268 -20.6322,-7.7127 -19.8224,-17.9376 -0.1227,-0.1638 -0.2333,-0.3311 -0.3498,-0.4949 -0.362,0.4887 -0.7404,0.9456 -1.1313,1.383 -0.1034,0.1236 -0.195,0.2526 -0.3084,0.3691 -0.0351,0.0351 -0.0629,0.0754 -0.0981,0.1136 -2.376,2.5237 -5.1361,2.7825 -7.4888,1.774 -2.0171,-0.1919 -4.0303,-0.4828 -6.0384,-0.8703 0.8331,0.8725 1.5543,1.819 2.071,2.8299 6.1943,12.0934 -7.4168,31.2122 -18.2183,36.081 -13.7882,6.213 -30.0591,0.8439 -38.8028,-10.9879 -19.4131,-26.269 -14.5132,-79.9433 12.632,-100.065 12.2468,-9.0771 28.9621,-8.5986 41.231,0.3053 7.7261,5.6055 12.3455,13.6344 14.9704,22.4753 7.8239,-15.5395 23.1242,-25.6884 41.7019,-16.7998 6.3833,3.0529 11.2257,7.7134 14.6857,13.2653 3.1788,-8.5705 9.6772,-14.1381 24.0698,-13.5459 10.3252,0.4249 19.6424,-1.112 22.4337,10.8201 0.1772,0.76 0.2554,1.5089 0.3597,2.2618 7.1269,-3.3644 15.594,-3.6893 24.8786,0.76 6.8907,3.3023 12.005,8.4563 15.497,14.6041 4.9643,-5.8159 12.0098,-10.0951 18.6959,-11.3179 13.8265,-2.5334 30.8659,3.564 38.9608,15.5559 0.3248,-0.422 0.6077,-0.9005 0.9737,-1.2597 7.3947,-7.2635 21.6087,-4.714 28.0706,2.9356 6.283,-4.4306 15.4528,-4.4703 22.822,1.7895 3.2516,2.7609 4.5471,6.2101 4.7288,10.0298 5.5992,-8.1828 19.5454,-11.6172 28.4811,-6.5449 2.304,1.3079 3.9254,3.3786 5.0576,5.9241 11.4051,-7.2309 26.9776,-0.9363 37.9802,8.3189 4.6163,-0.8796 9.7515,-1.3746 13.4595,1.2665 4.4181,-3.7692 9.6925,-6.4469 14.7526,-7.3732 16.1521,-2.9588 36.7518,5.8447 42.2663,22.0901 2.4009,7.0801 2.0854,15.2311 -1.2643,21.9484" /><path
             id="path60"
             style="fill:#45b8db;fill-opacity:1;fill-rule:nonzero;stroke:none"
             d="m 130.8005,423.4388 c 0.0793,0.104 0.1227,0.3053 0.1267,0.5984 0,0.2999 -0.0451,0.7537 -0.1398,1.3745 -0.0972,0.6208 -0.3055,1.1429 -0.6202,1.5883 -0.3084,0.4334 -0.8756,0.784 -1.6977,1.0519 -0.8229,0.2551 -1.8462,0.2395 -3.067,-0.0513 0.0924,0.0196 0.2332,0.0451 0.4266,0.0731 0.1919,0.0281 0.5198,-0.0473 0.9822,-0.2111 0.47,-0.1735 0.9176,-0.3941 1.349,-0.6707 0.4351,-0.2682 0.898,-0.7382 1.3955,-1.3839 0.4856,-0.6582 0.9076,-1.4491 1.2447,-2.3692 z m -22.6418,36.1123 c -0.0309,0.1919 -0.0986,0.4467 -0.1981,0.7778 -0.1009,0.3214 -0.3852,0.8881 -0.8515,1.6985 -0.4694,0.8002 -0.9448,1.5035 -1.4304,2.1144 -0.4881,0.5981 -1.1781,1.1344 -2.0764,1.5718 -0.9045,0.4476 -1.8306,0.5989 -2.7816,0.4507 0.2075,-0.0692 0.5471,-0.1888 1.0108,-0.356 0.4663,-0.1795 1.3451,-0.8127 2.6436,-1.9285 1.2952,-1.112 2.5246,-2.5619 3.6836,-4.3287 z m 22.216,-28.7173 c 0.9014,-0.1508 1.6645,-0.9581 2.2791,-2.4227 0.623,-1.4647 0.9952,-3.0694 1.1211,-4.7991 0.1267,-1.7365 0.1547,-3.3457 0.098,-4.8144 -0.0637,-1.4717 -0.2307,-2.2813 -0.5011,-2.4205 -0.3498,-0.2579 -1.137,-0.5196 -2.3599,-0.8087 0.2228,-3.2899 0.2268,-6.5792 0.0125,-9.8816 -0.2146,-3.3015 -0.8229,-7.2059 -1.8215,-11.7056 -1.0015,-4.4998 -2.4475,-8.513 -4.3325,-12.0238 -1.8907,-3.5197 -4.663,-6.6792 -8.3183,-9.5028 -3.6581,-2.8137 -7.9642,-4.6126 -12.9155,-5.385 -3.6201,-0.5734 -7.0327,-0.4289 -10.2427,0.4351 -3.2082,0.8603 -6.0057,2.2054 -8.3871,4.0298 -2.3862,1.8181 -4.6389,4.0274 -6.7502,6.6225 -2.1143,2.5937 -3.9036,5.294 -5.366,8.0827 -1.4646,2.801 -2.7476,5.6753 -3.8432,8.6179 -1.0973,2.962 -1.9479,5.5798 -2.5526,7.8767 -0.6083,2.3 -1.0519,4.3957 -1.3512,6.3025 -0.5074,3.2386 -0.8229,6.7731 -0.9403,10.6087 -0.1094,3.8406 -0.0085,8.0249 0.303,12.5651 0.3118,4.5403 1.0375,8.9204 2.1804,13.1511 1.1438,4.2318 2.6,8.1394 4.3801,11.7346 1.7762,3.5985 4.2279,6.6412 7.3508,9.134 3.1221,2.4857 6.7298,4.0553 10.827,4.6987 3.2354,0.5097 6.2923,0.453 9.172,-0.1672 2.8826,-0.627 5.2869,-1.6605 7.2278,-3.1136 1.931,-1.4522 3.6831,-3.1311 5.2518,-5.0286 1.5627,-1.9032 2.8145,-3.9544 3.7431,-6.1504 0.9301,-2.1926 1.6455,-4.2565 2.1399,-6.1786 0.4949,-1.9194 0.7755,-3.7089 0.8385,-5.3561 0.0723,-1.0661 -0.955,-2.1461 -3.0717,-3.2652 -2.1183,-1.1149 -3.5705,-1.342 -4.3582,-0.686 -0.5672,0.5034 -1.7771,2.1421 -3.6272,4.9209 -1.8494,2.7887 -3.8214,5.0893 -5.9108,6.9069 -2.0917,1.8142 -4.2319,2.5549 -6.4245,2.2144 -2.5713,-0.4025 -4.754,-3.5759 -6.5565,-9.5215 -1.7997,-5.942 -2.0163,-13.2492 -0.6591,-21.9144 0.0321,-0.1919 0.095,-0.6171 0.2021,-1.2852 0.3714,-2.3786 0.6801,-4.3328 0.9193,-5.8541 0.2401,-1.5254 0.6557,-3.7058 1.2456,-6.5347 0.5921,-2.8423 1.2285,-5.2022 1.9153,-7.0966 0.6869,-1.8961 1.4811,-3.8182 2.3723,-5.781 0.8921,-1.9573 1.9472,-3.3973 3.1663,-4.3265 1.2232,-0.9357 2.5464,-1.2852 3.9737,-1.0621 0.6644,0.1071 1.2293,0.3852 1.6979,0.8515 0.4638,0.4623 0.8889,1.014 1.2733,1.6659 0.3878,0.6435 0.6965,1.4749 0.9264,2.4872 0.233,1.0071 0.4476,1.9746 0.6497,2.8819 0.1981,0.9108 0.3589,2.0291 0.4941,3.3755 0.1267,1.3326 0.2174,2.4733 0.2712,3.4027 0.0434,0.9355 0.1072,2.1167 0.1764,3.5439 0.066,1.425 0.1352,2.5339 0.2075,3.3242 -4.6591,-0.1477 -7.3633,-0.0343 -8.1037,0.3402 -0.3147,0.1462 -0.5766,0.4229 -0.7872,0.8291 -0.212,0.4042 -0.3597,0.8702 -0.4388,1.3924 -0.0848,0.5238 -0.1477,1.0746 -0.1882,1.6543 -0.0411,0.5828 -0.0318,1.1375 0.0311,1.6894 0.0567,0.5414 0.1032,1.0426 0.1321,1.484 0.025,0.4413 0.0661,0.8098 0.1174,1.116 l 0.0745,0.4498 c 2.1462,0.627 4.7988,1.4652 7.9535,2.4863 3.1541,1.0335 7.7533,2.3683 13.7914,3.998 6.0369,1.6356 9.7991,2.3666 11.2918,2.2121" /><path
             id="path62"
             style="fill:#45b8db;fill-opacity:1;fill-rule:nonzero;stroke:none"
             d="m 170.6151,440.2247 c 2.3351,-1.1979 4.3956,-2.675 6.1891,-4.4427 1.7887,-1.7711 2.9611,-3.2006 3.5224,-4.2792 l 0.8662,-1.764 c -0.3022,1.3141 -0.7435,2.5418 -1.3076,3.67 -0.5703,1.1282 -1.175,2.0296 -1.8184,2.7102 -0.6418,0.6863 -1.3264,1.3071 -2.0483,1.8783 -0.724,0.5632 -1.3987,0.9756 -2.0257,1.222 -0.6199,0.2364 -1.1973,0.4734 -1.7132,0.6809 -0.5239,0.2111 -0.9261,0.2897 -1.2067,0.2454 z m -5.0281,-46.3113 c 1.7141,0.2682 3.1572,1.4874 4.3287,3.674 1.1696,2.1864 1.9452,4.6979 2.325,7.5393 0.3855,2.8463 0.3793,5.5525 -0.0249,8.1238 -0.3714,2.3817 -0.8686,4.4484 -1.4871,6.2036 -0.621,1.7555 -1.2543,3.1479 -1.8969,4.1681 -0.6517,1.0148 -1.4366,1.8252 -2.3565,2.4134 -0.9201,0.5837 -1.781,0.9403 -2.5815,1.0622 -0.8025,0.1133 -1.7226,0.0856 -2.7691,-0.0754 -1.0523,-0.1639 -1.9185,-0.3785 -2.6093,-0.6262 -0.6891,-0.2557 -1.5401,-0.6083 -2.5416,-1.0622 -0.7344,-0.3092 -1.5758,-0.2432 -2.5177,0.1982 -1.84,-5.0754 -2.3573,-10.1838 -1.5508,-15.3292 0.1958,-1.2379 0.4989,-2.5557 0.9138,-3.9504 0.4125,-1.3963 1.0185,-2.9114 1.812,-4.547 0.7939,-1.6294 1.673,-3.0569 2.6464,-4.2667 0.9714,-1.2192 2.1719,-2.1702 3.5986,-2.8735 1.4272,-0.7095 2.9968,-0.9261 4.7109,-0.652 z m -5.6628,51.9543 c 4.3801,0.6868 8.4827,0.1856 12.3143,-1.512 3.825,-1.6918 6.9596,-4.106 9.405,-7.2349 2.4415,-3.1283 4.4017,-6.2887 5.8765,-9.4683 1.4772,-3.185 2.4299,-6.1602 2.8633,-8.9223 0.6871,-4.3779 0.7943,-8.6531 0.3319,-12.8248 -0.4702,-4.1712 -1.3776,-7.8806 -2.7226,-11.113 -1.349,-3.2394 -2.99,-6.1253 -4.9349,-8.6811 -1.9372,-2.5523 -4.0609,-4.5844 -6.3547,-6.1219 -2.2997,-1.5245 -4.638,-2.4857 -7.0203,-2.8548 -4.9535,-0.7778 -9.7072,-0.0414 -14.2514,2.2277 -4.5556,2.2595 -8.3336,5.5208 -11.346,9.7835 -3.0056,4.2602 -4.9124,8.9139 -5.7033,13.9624 -2.1362,13.617 0.432,23.6843 7.7071,30.1935 -0.703,1.3518 -1.1282,2.5089 -1.2764,3.4568 -0.2395,1.5214 1.1733,3.2644 4.2324,5.2022 3.0623,1.9411 6.6855,3.251 10.8791,3.907" /><path
             id="path64"
             style="fill:#45b8db;fill-opacity:1;fill-rule:nonzero;stroke:none"
             d="m 227.5027,387.3773 c 0.0808,0.1111 0.2004,0.2741 0.3589,0.5012 0.1633,0.2143 0.3682,0.6145 0.6199,1.1848 0.2526,0.5828 0.3631,1.1095 0.3342,1.5945 -0.028,0.4785 -0.3311,1.0171 -0.9108,1.6169 -0.5825,0.5882 -1.487,1.0809 -2.7187,1.4749 0.1072,-0.0862 0.2418,-0.1607 0.4026,-0.2308 0.1584,-0.0785 0.4064,-0.2766 0.7568,-0.6145 0.3441,-0.3405 0.6208,-0.7095 0.8291,-1.112 0.2107,-0.4065 0.3552,-1.0149 0.4374,-1.8369 0.0763,-0.8167 0.0442,-1.673 -0.1094,-2.5781 z m -24.8805,83.9239 c 0.1797,0.1219 0.3217,0.2928 0.4328,0.5097 0.1137,0.212 0.2704,0.6248 0.4624,1.2455 0.1989,0.6075 0.2369,1.1554 0.1136,1.6254 -0.1261,0.4632 -0.4952,0.9666 -1.116,1.503 -0.6208,0.5383 -1.5409,0.951 -2.7561,1.254 0.1097,-0.0822 0.2426,-0.157 0.4025,-0.237 0.1548,-0.0683 0.4289,-0.2415 0.8127,-0.5221 0.3855,-0.2843 0.6846,-0.631 0.8929,-1.0313 0.2106,-0.4084 0.4476,-0.9756 0.7118,-1.7231 0.2619,-0.7368 0.2767,-1.6195 0.0434,-2.6241 z m 24.4607,-75.6433 c 1.6163,0.2588 2.8105,-0.9735 3.5768,-3.6831 0.7676,-2.7187 0.9099,-5.4726 0.4186,-8.2806 -0.4824,-2.8037 -1.4561,-4.2287 -2.9114,-4.2658 -2.4259,-0.091 -4.5936,-0.1321 -6.4942,-0.1361 -1.9023,-0.002 -3.2426,-0.0218 -4.0173,-0.0473 -0.7778,-0.025 -1.9434,-0.0624 -3.4965,-0.1066 -1.5542,-0.0505 -3.6777,-0.1888 -6.3748,-0.4096 -0.9712,-0.0635 -1.8377,0.485 -2.6031,1.6296 -3.056,0.2106 -4.6341,0.9386 -4.7327,2.1889 -0.324,2.6813 -1.4142,11.8284 -3.2791,27.4437 -1.8664,15.6126 -3.265,28.8873 -4.2007,39.8145 -0.9323,10.9273 -1.2665,19.5857 -0.9984,25.9728 -0.006,1.2628 0.923,2.1928 2.7817,2.785 1.8626,0.5771 3.7842,0.7529 5.7725,0.5329 1.9885,-0.2268 3.1314,-0.7024 3.4469,-1.4366 2.3218,-5.4921 5.0383,-17.365 8.1479,-35.6048 3.1042,-18.25 5.5207,-34.1175 7.2473,-47.6059 0.8601,0.1343 3.4314,0.5386 7.7165,1.209" /><path
             id="path66"
             style="fill:#45b8db;fill-opacity:1;fill-rule:nonzero;stroke:none"
             d="m 257.0451,453.7871 c 2.3349,-1.1942 4.3954,-2.6745 6.1889,-4.4462 1.7864,-1.7676 2.9613,-3.1983 3.5223,-4.2752 l 0.8632,-1.7654 c -0.3022,1.3139 -0.7404,2.5433 -1.3108,3.6714 -0.5641,1.1243 -1.1687,2.0288 -1.8122,2.7094 -0.6454,0.6871 -1.3286,1.3039 -2.0505,1.8782 -0.728,0.5641 -1.3992,0.9766 -2.0234,1.2223 -0.62,0.2362 -1.1974,0.4723 -1.7133,0.6806 -0.5261,0.2115 -0.9261,0.2897 -1.2107,0.2424 z m -5.0281,-46.3184 c 1.7141,0.2718 3.157,1.4933 4.3288,3.6808 1.1653,2.1863 1.9409,4.6978 2.3255,7.5362 0.3847,2.8488 0.3745,5.5559 -0.028,8.1238 -0.3722,2.3848 -0.8703,4.4524 -1.4848,6.207 -0.6208,1.7552 -1.2541,3.1476 -1.8967,4.1686 -0.6519,1.0148 -1.4369,1.8238 -2.3567,2.4135 -0.9232,0.5828 -1.7833,0.9385 -2.5812,1.0621 -0.8028,0.1134 -1.726,0.0847 -2.7686,-0.076 -1.0528,-0.1641 -1.9194,-0.3778 -2.6124,-0.627 -0.6908,-0.2557 -1.5378,-0.6086 -2.5433,-1.0624 -0.7305,-0.3076 -1.5718,-0.2415 -2.5174,0.1998 -1.84,-5.0771 -2.3559,-10.1846 -1.5494,-15.33 0.1981,-1.2376 0.4972,-2.5549 0.9161,-3.951 0.4125,-1.4017 1.0185,-2.9117 1.8119,-4.5464 0.7912,-1.6286 1.673,-3.0561 2.6467,-4.2668 0.9712,-1.2191 2.1677,-2.171 3.5983,-2.8726 1.4242,-0.7092 2.9971,-0.9269 4.7112,-0.6596 z m -5.6653,51.961 c 4.3801,0.6869 8.4849,0.1866 12.3165,-1.512 3.8254,-1.6923 6.9599,-4.106 9.4051,-7.234 2.4415,-3.1229 4.3988,-6.2838 5.8765,-9.4688 1.4709,-3.1859 2.4299,-6.1594 2.8636,-8.9235 0.6876,-4.3792 0.7939,-8.6522 0.3316,-12.8302 -0.47,-4.1655 -1.3776,-7.8735 -2.7266,-11.1058 -1.3451,-3.2395 -2.9892,-6.1317 -4.9309,-8.6811 -1.9372,-2.5523 -4.0638,-4.5845 -6.3584,-6.1229 -2.3,-1.5244 -4.6341,-2.4848 -7.0166,-2.8601 -4.9535,-0.7716 -9.7072,-0.0352 -14.2574,2.234 -4.5496,2.2595 -8.3274,5.5199 -11.34,9.7835 -3.0093,4.2596 -4.9116,8.9129 -5.7033,13.9606 -2.1362,13.6182 0.432,23.6852 7.7074,30.1952 -0.7033,1.3518 -1.1285,2.5072 -1.2767,3.456 -0.2393,1.5222 1.1692,3.2644 4.2324,5.1962 3.0622,1.9471 6.6855,3.2516 10.8768,3.9129" /><path
             id="path68"
             style="fill:#45b8db;fill-opacity:1;fill-rule:nonzero;stroke:none"
             d="m 329.1324,429.0894 c 0.4229,-0.8096 0.7716,-1.6574 1.0562,-2.5424 0.2866,-0.889 0.5097,-1.7016 0.6806,-2.4585 0.167,-0.7529 0.2829,-1.5123 0.3589,-2.287 0.0686,-0.769 0.1012,-1.4459 0.0972,-2.0293 -0.006,-0.5859 -0.0147,-1.1469 -0.025,-1.6926 -0.0161,-0.5352 -0.0411,-1.0015 -0.0759,-1.4017 -0.0352,-0.3971 -0.1035,-0.7467 -0.1982,-1.0488 -0.0949,-0.3155 -0.1321,-0.565 -0.1034,-0.7506 l -0.1197,-0.1673 c 1.2473,2.6382 1.7266,5.1494 1.4483,7.5504 -0.2741,2.391 -0.8414,4.1082 -1.6852,5.1517 z m -1.5437,35.0305 c 0.0754,0.1112 0.2267,0.262 0.4413,0.4391 0.2137,0.1795 0.4754,0.5633 0.7747,1.143 0.2968,0.5796 0.4507,1.1437 0.466,1.6891 0.0125,0.5355 -0.2548,1.15 -0.8002,1.8431 -0.5479,0.697 -1.4017,1.2954 -2.5526,1.7966 0.0165,-0.0986 0.1012,-0.1772 0.2597,-0.2494 0.1598,-0.0701 0.4124,-0.3031 0.7684,-0.6869 0.3496,-0.3815 0.6177,-0.8291 0.794,-1.3428 0.1735,-0.5011 0.258,-1.1749 0.2396,-2.0032 -0.0156,-0.8291 -0.1455,-1.711 -0.3909,-2.6286 z m -16.4163,3.8665 c -1.7173,-0.2682 -2.886,-1.3544 -3.513,-3.2581 -0.6307,-1.9123 -0.794,-3.8121 -0.4949,-5.7189 0.4912,-3.1414 1.6769,-6.0242 3.5572,-8.6585 1.8728,-2.6308 4.0118,-4.9084 6.4097,-6.8244 2.4009,-1.9216 4.7701,-3.8151 7.1138,-5.688 2.3448,-1.8802 4.4305,-3.9634 6.2549,-6.2634 1.8213,-2.3 2.9427,-4.7866 3.3653,-7.4548 1.1625,-7.4268 -0.6239,-13.6143 -5.36,-18.5522 -4.739,-4.9403 -11.1572,-8.0507 -19.2515,-9.3204 -3.3372,-0.5198 -6.4562,-0.5417 -9.3552,-0.0754 -2.9078,0.4825 -5.36,1.3366 -7.357,2.5773 -2.0038,1.2481 -3.8152,2.719 -5.4508,4.4206 -1.6324,1.6954 -2.8423,3.5037 -3.6357,5.4321 -0.7917,1.9224 -1.425,3.7967 -1.9037,5.6304 -0.4887,1.8253 -0.5485,3.4974 -0.2044,5.0165 0.324,2.2867 3.4367,4.1967 9.3515,5.7127 5.6398,1.3665 9.2038,1.3419 10.6974,-0.0825 0.3464,-0.3402 0.5136,-0.794 0.5096,-1.3799 -0.5221,-4.7671 0.0638,-8.1882 1.7553,-10.2717 1.6925,-2.0675 3.869,-2.8989 6.5378,-2.48 1.9068,0.2968 3.5036,1.1376 4.8053,2.5112 1.2951,1.3737 1.7957,3.0127 1.4964,4.9156 -0.2704,1.7141 -1.3295,3.6456 -3.1796,5.7912 -1.8522,2.1554 -4.0451,4.3225 -6.5812,6.5066 -2.5393,2.1898 -5.0695,4.4547 -7.5776,6.7927 -2.5175,2.3352 -4.7577,4.9629 -6.7306,7.8706 -1.9658,2.9124 -3.1827,5.8423 -3.6451,8.7982 -0.8952,5.715 0.5757,11.0974 4.4175,16.1379 3.8469,5.0423 8.8626,8.0476 15.058,9.0213 3.7142,0.5828 7.0886,0.5043 10.1361,-0.2392 3.0404,-0.7439 5.3972,-1.9287 7.0764,-3.5728 1.6699,-1.645 2.9682,-3.2426 3.8976,-4.8053 0.9261,-1.5571 1.4973,-3.0124 1.7017,-4.3418 0.2106,-1.3397 -0.8065,-2.9342 -3.0498,-4.8022 -2.2442,-1.8624 -4.1913,-2.8259 -5.8385,-2.8834 -1.0622,-0.0723 -1.9511,0.4453 -2.6592,1.5508 -0.7132,1.1089 -1.3139,2.3063 -1.8088,3.5986 -0.4981,1.2852 -1.2861,2.4072 -2.3607,3.3644 -1.0769,0.9488 -2.4693,1.2952 -4.1842,1.0242" /><path
             id="path70"
             style="fill:#45b8db;fill-opacity:1;fill-rule:nonzero;stroke:none"
             d="m 345.206,509.487 c 2.1586,-1.3263 3.9886,-2.8919 5.4952,-4.7041 1.5058,-1.811 2.4888,-3.2672 2.9557,-4.3667 l 0.718,-1.7966 c -0.2806,1.8153 -0.7778,3.4197 -1.4873,4.8245 -0.7087,1.3927 -1.4803,2.4477 -2.3216,3.147 -0.8416,0.6931 -1.6931,1.2992 -2.5495,1.7966 -0.8631,0.4981 -1.544,0.8003 -2.0514,0.9199 z m 4.1207,-46.7835 c 0.0661,0.2043 0.1335,0.4062 0.1956,0.6105 0.0638,0.2084 0.1049,0.5837 0.1196,1.1158 0.0102,0.5425 -0.0907,1.0437 -0.3092,1.4935 -0.2166,0.4578 -0.6642,0.8229 -1.3411,1.1064 -0.6806,0.2806 -1.554,0.3971 -2.6124,0.3212 0.1891,0.0348 0.4827,0.006 0.8852,-0.0754 0.4031,-0.0856 0.9641,-0.5137 1.6674,-1.2799 0.7078,-0.7653 1.1718,-1.8649 1.3949,-3.2921 z m -11.7207,4.7483 c 0.2206,1.6923 2.2309,2.7156 6.0304,3.0685 3.7973,0.3464 5.9746,-0.0125 6.5418,-1.0956 0.756,-1.7368 1.4871,-3.596 2.1895,-5.5908 0.6996,-1.9845 1.3646,-4.3186 1.9783,-7.0001 0.6149,-2.6887 1.1571,-5.0196 1.6109,-6.9988 0.4561,-1.9752 1.0086,-4.8702 1.6504,-8.6706 0.6466,-3.8035 1.1219,-6.6515 1.4213,-8.5575 0.2999,-1.9006 0.8033,-5.2937 1.5151,-10.1548 0.7157,-4.8657 1.2231,-8.2497 1.5222,-10.1557 0.2245,-1.4281 -1.1429,-2.67 -4.0989,-3.712 -2.9619,-1.0519 -6.0497,-1.5633 -9.2761,-1.5315 -3.227,0.0257 -5.0318,0.6488 -5.4159,1.8617 -4.9286,18.3447 -6.8159,37.8644 -5.669,58.5372 z m 5.2084,45.1675 c 2.8548,0.4476 5.394,-0.1981 7.6218,-1.9471 2.2246,-1.7524 3.8027,-3.7281 4.7353,-5.921 0.9337,-2.1921 1.4561,-4.3101 1.582,-6.3357 0.1258,-1.4432 0.0728,-2.9654 -0.1633,-4.5661 -0.2392,-1.5973 -0.7242,-3.3077 -1.4647,-5.1392 -0.7381,-1.815 -1.9604,-3.3715 -3.6584,-4.6689 -1.699,-1.2892 -3.7403,-2.1184 -6.1228,-2.492 -2.1895,-0.3503 -4.1709,-0.1709 -5.9394,0.5261 -1.7703,0.7016 -3.1788,1.7513 -4.2248,3.1437 -1.0491,1.3994 -1.8533,2.7856 -2.408,4.1635 -0.5601,1.3759 -0.9408,2.728 -1.1492,4.0637 -0.5961,3.8098 0.167,7.8075 2.2876,11.9957 2.1234,4.1904 5.0919,6.5789 8.9039,7.1773" /><path
             id="path72"
             style="fill:#45b8db;fill-opacity:1;fill-rule:nonzero;stroke:none"
             d="m 412.7533,419.5227 c 0.1888,0.0287 0.4377,-0.009 0.747,-0.1065 0.3052,-0.0978 0.8251,-0.1134 1.5431,-0.0536 0.7217,0.0691 1.3839,0.22 1.9797,0.46 0.5984,0.2362 1.0676,0.8057 1.4205,1.6884 0.3464,0.8827 0.4632,2.0046 0.3526,3.3437 0.0125,-0.0887 0.003,-0.1891 -0.0278,-0.29 -0.0351,-0.1071 -0.0731,-0.303 -0.1235,-0.6114 -0.0536,-0.2962 -0.154,-0.5797 -0.3085,-0.8479 -0.1516,-0.2704 -0.3721,-0.5734 -0.659,-0.9099 -0.2928,-0.3401 -0.6293,-0.6658 -1.0211,-0.9612 -0.39,-0.3152 -0.9283,-0.6185 -1.6154,-0.9136 -0.6806,-0.3053 -1.4437,-0.5712 -2.2876,-0.798 z m -15.1557,59.2393 c 1.3893,-0.7497 2.7187,-1.5976 3.9861,-2.5135 1.2665,-0.9263 2.2549,-1.7934 2.9707,-2.6061 0.7123,-0.819 1.3487,-1.6039 1.8998,-2.3412 0.5578,-0.7429 0.9144,-1.2977 1.0684,-1.6645 l 0.3971,-0.6644 c -0.457,1.6792 -1.1347,3.1858 -2.0259,4.5091 -0.8881,1.3209 -1.7995,2.2969 -2.7258,2.9403 -0.9323,0.6333 -1.8151,1.1282 -2.6496,1.4871 -0.8416,0.356 -1.557,0.5828 -2.1577,0.6831 z m -8.3849,3.0818 c 4.9504,0.7779 9.3359,0.0513 13.1488,-2.1835 3.816,-2.2371 6.8284,-5.3909 9.0306,-9.4875 2.1989,-4.0924 4.0388,-8.6358 5.5043,-13.6242 1.4656,-4.987 2.4228,-10.0128 2.8766,-15.0633 0.4507,-5.0547 0.6806,-9.4813 0.694,-13.288 0.0124,-3.8058 -0.167,-6.7172 -0.5332,-8.7182 -0.2835,-1.317 -1.5089,-2.0483 -3.6837,-2.1935 -2.1741,-0.1414 -4.5147,-0.002 -7.0228,0.4383 -2.5084,0.432 -4.7988,1.0457 -6.876,1.8501 -2.0784,0.7901 -3.1096,1.4871 -3.1056,2.073 0.1009,0.5959 0.1352,1.6254 0.1009,3.0847 0.0816,1.9692 0.1222,3.5317 0.1383,4.7103 0.009,1.175 0.0474,2.956 0.1134,5.3592 0.0629,2.4018 0.0601,4.3988 0.006,6.0032 -0.0567,1.603 -0.1227,3.5884 -0.2043,5.9647 -0.0791,2.3782 -0.2308,4.411 -0.4414,6.08 -0.2143,1.677 -0.47,3.4665 -0.7654,5.37 -0.303,1.906 -0.6967,3.4781 -1.1817,4.7165 -0.4887,1.2481 -1.0335,2.4041 -1.645,3.4756 -0.6083,1.074 -1.3138,1.8462 -2.1174,2.3062 -0.8034,0.453 -1.7295,0.6118 -2.7794,0.4468 -3.9946,-0.627 -8.1386,-5.6775 -12.4075,-15.1271 2.2776,-8.3305 4.7607,-21.0098 7.4355,-38.0653 0.2245,-1.4236 -1.1018,-2.6365 -3.973,-3.6204 -2.8681,-0.9859 -5.8037,-1.4018 -8.8098,-1.2314 -2.9962,0.1536 -4.6094,0.955 -4.8339,2.3845 -0.0312,0.1928 -0.8788,5.133 -2.5455,14.8226 -1.6699,9.6911 -2.886,17.6004 -3.6522,23.7218 -0.7654,6.1353 -1.0684,11.1611 -0.9011,15.0865 0.0473,1.5628 1.7963,2.8455 5.2565,3.8192 3.4529,0.983 5.4856,0.7911 6.0934,-0.5758 0.7001,-1.3529 1.3643,-2.8082 2.0007,-4.3676 4.4331,9.6761 9.4586,14.9536 15.0797,15.8326" /><path
             id="path74"
             style="fill:#45b8db;fill-opacity:1;fill-rule:nonzero;stroke:none"
             d="m 448.2306,488.1773 c 2.0203,-1.0559 4.0547,-2.5143 6.1067,-4.3824 2.0475,-1.8751 3.6295,-3.558 4.7455,-5.0391 l 1.6409,-2.0886 c -0.6806,1.8462 -1.5502,3.4849 -2.6022,4.9334 -1.0584,1.4477 -2.1393,2.575 -3.2363,3.3721 -1.1058,0.8005 -2.1608,1.4718 -3.1694,1.9916 -1.0086,0.5262 -1.8153,0.8354 -2.4134,0.9349 z m 3.7406,-39.6726 c 0.0686,0.8005 -0.0161,1.9783 -0.2656,3.5479 -0.2455,1.5698 -0.5284,2.429 -0.8439,2.5775 -2.1492,-0.6301 -4.3948,-2.7669 -6.7555,-6.4088 -2.3536,-3.6326 -3.028,-6.2008 -2.01,-7.7035 0.2548,-0.3566 1.2004,-0.0124 2.8423,1.0335 1.6418,1.0364 3.2229,2.3091 4.7415,3.8152 1.5182,1.5058 2.2813,2.5617 2.2912,3.1382 z m -11.4851,42.414 c 4.5683,0.7149 8.7811,0.006 12.6283,-2.1246 3.8438,-2.1265 6.9917,-5.0978 9.447,-8.907 2.4506,-3.8183 4.5806,-8.0663 6.3919,-12.7548 1.8088,-4.6939 3.1547,-9.3645 4.0303,-14.0088 0.8733,-4.6443 1.4553,-8.6771 1.7484,-12.092 0.2937,-3.426 0.3214,-5.9335 0.0822,-7.5255 -0.2353,-1.6061 -4.1493,-1.5307 -11.7391,0.2058 -6.5047,-7.0715 -13.5646,-11.2084 -21.1873,-12.399 -4.6627,-0.7342 -8.6304,0.4476 -11.8976,3.5479 -3.2666,3.0943 -5.161,6.3079 -5.6871,9.6454 -0.4757,3.0458 -0.394,5.9417 0.2526,8.68 0.6426,2.7312 1.7265,5.1423 3.251,7.2411 1.5253,2.0885 3.1859,3.9605 4.9759,5.6117 1.789,1.6441 3.7803,3.1003 5.9732,4.373 2.1903,1.2728 4.0116,2.2658 5.461,2.9838 1.4459,0.7118 2.8669,1.3263 4.2502,1.8368 -1.3861,7.5878 -3.7017,11.1357 -6.9349,10.6243 -0.7654,-0.1157 -1.603,-0.8416 -2.5183,-2.1577 -0.9193,-1.3108 -1.7516,-2.833 -2.5044,-4.5658 -0.7529,-1.7204 -1.4554,-3.4665 -2.1051,-5.2302 -0.6542,-1.7646 -1.1755,-3.2613 -1.5655,-4.4935 l -0.4437,-1.8213 c -4.4152,-0.4974 -6.705,-0.1734 -6.8853,0.9712 -0.3436,2.1866 -0.523,4.3792 -0.5199,6.573 -0.006,2.1926 0.2052,4.2998 0.6177,6.3192 0.4127,2.0172 0.9388,3.9513 1.5783,5.8116 0.6333,1.8525 1.4375,3.5439 2.4265,5.0568 0.9799,1.5244 2.0072,2.9046 3.0818,4.1431 1.0707,1.2478 2.2813,2.2439 3.6264,2.9971 1.3481,0.7395 2.7343,1.2344 4.1655,1.4584" /><path
             id="path76"
             style="fill:#45b8db;fill-opacity:1;fill-rule:nonzero;stroke:none"
             d="m 524.4233,459.7319 c 0.4218,-0.8104 0.7685,-1.6571 1.0551,-2.543 0.2869,-0.8821 0.5105,-1.701 0.6809,-2.4579 0.1638,-0.7529 0.2834,-1.512 0.3588,-2.2875 0.0692,-0.7685 0.101,-1.446 0.0978,-2.0288 -0.006,-0.5859 -0.0153,-1.1469 -0.0286,-1.6923 -0.0156,-0.5354 -0.0374,-1.0017 -0.0723,-1.4017 -0.0348,-0.3971 -0.104,-0.7407 -0.2012,-1.05 -0.0947,-0.3115 -0.1299,-0.5641 -0.0978,-0.7497 l -0.1197,-0.167 c 1.2408,2.6371 1.7258,5.1494 1.446,7.5495 -0.2775,2.3947 -0.8416,4.112 -1.6855,5.1517 z m -1.5448,35.0306 c 0.0762,0.1105 0.2247,0.2619 0.4413,0.4382 0.2146,0.1797 0.4725,0.5641 0.7756,1.15 0.2959,0.5735 0.4498,1.1376 0.4632,1.6824 0.0155,0.536 -0.2526,1.1531 -0.8011,1.8439 -0.5448,0.6962 -1.3986,1.2943 -2.5481,1.8017 0.0148,-0.104 0.1004,-0.1825 0.2543,-0.2548 0.1607,-0.0698 0.4164,-0.2968 0.769,-0.6837 0.3529,-0.3847 0.6211,-0.8323 0.7983,-1.3397 0.1692,-0.5074 0.2539,-1.1818 0.2392,-2.0092 -0.0164,-0.8291 -0.1485,-1.7118 -0.3917,-2.6288 z m -16.4183,3.8664 c -1.7141,-0.2679 -2.886,-1.3549 -3.5107,-3.2578 -0.6302,-1.91 -0.794,-3.8121 -0.4941,-5.7189 0.4918,-3.1417 1.6758,-6.0245 3.5541,-8.6585 1.8748,-2.6311 4.0102,-4.9093 6.4119,-6.8247 2.401,-1.9221 4.771,-3.816 7.1113,-5.6877 2.3474,-1.881 4.4328,-3.9637 6.2544,-6.2637 1.8244,-2.2997 2.9463,-4.7863 3.369,-7.4492 1.1616,-7.4321 -0.6248,-13.6204 -5.3598,-18.5553 -4.7423,-4.9374 -11.1574,-8.047 -19.2523,-9.3166 -3.3367,-0.5267 -6.4557,-0.5476 -9.3578,-0.0816 -2.9052,0.4819 -5.36,1.3359 -7.3536,2.5775 -2.0049,1.2478 -3.8191,2.7187 -5.4516,4.4204 -1.6327,1.6979 -2.8457,3.5036 -3.6357,5.4323 -0.7912,1.9216 -1.4244,3.7964 -1.9069,5.6301 -0.485,1.8309 -0.5479,3.4974 -0.2012,5.0159 0.3208,2.2936 3.4407,4.1973 9.3515,5.7127 5.6403,1.3674 9.2038,1.3425 10.6971,-0.0825 0.3466,-0.3404 0.5105,-0.7934 0.5105,-1.3799 -0.5227,-4.7664 0.0598,-8.1884 1.7524,-10.2685 1.6914,-2.0698 3.8749,-2.9012 6.544,-2.4826 1.8998,0.2963 3.5005,1.1407 4.7988,2.5115 1.2954,1.3768 1.7957,3.0124 1.4958,4.9147 -0.2664,1.7141 -1.3286,3.6465 -3.1756,5.7949 -1.8525,2.1515 -4.0453,4.3194 -6.5855,6.503 -2.5361,2.1903 -5.066,4.4555 -7.5741,6.7935 -2.5178,2.3349 -4.758,4.962 -6.7269,7.8704 -1.9727,2.9114 -3.1856,5.8456 -3.6488,8.7976 -0.8952,5.7158 0.5766,11.0973 4.4172,16.1387 3.8472,5.0483 8.8628,8.0468 15.0543,9.0205 3.7156,0.5833 7.0925,0.5051 10.1401,-0.2393 3.0404,-0.7429 5.3971,-1.9278 7.0738,-3.5722 1.6691,-1.6455 2.9707,-3.2423 3.9008,-4.8059 0.9263,-1.5562 1.4967,-3.0061 1.7039,-4.3387 0.2083,-1.3357 -0.8096,-2.9364 -3.0529,-4.8053 -2.2431,-1.8618 -4.1905,-2.8258 -5.8385,-2.8825 -1.0645,-0.0723 -1.9503,0.4445 -2.6629,1.5539 -0.7118,1.1058 -1.3099,2.3023 -1.8079,3.5946 -0.495,1.2858 -1.283,2.4072 -2.3576,3.3645 -1.0738,0.9524 -2.4693,1.2951 -4.1865,1.0247" /></g></g></g></g></svg>